<svg width="22" height="16" viewBox="0 0 22 16" fill="none" xmlns="http://www.w3.org/2000/svg">
<path fill-rule="evenodd" clip-rule="evenodd" d="M13.2178 1.37668L13.3703 1.20396C14.0312 0.543076 15.0711 0.492238 15.7903 1.05145L15.963 1.20396L21.463 6.70396L21.5389 6.78456L21.6401 6.90893L21.7714 7.11288L21.8694 7.31954L21.9343 7.51267L21.9873 7.78382L22 8.00033L21.9949 8.13826L21.9629 8.36832L21.9088 8.57259L21.8283 8.77623L21.7323 8.95496L21.5972 9.14698L21.463 9.29669L15.963 14.7967C15.2471 15.5126 14.0863 15.5126 13.3703 14.7967C12.7094 14.1358 12.6586 13.0959 13.2178 12.3767L13.3703 12.204L15.7392 9.83366H1.83333C0.820811 9.83366 0 9.01285 0 8.00033C0 6.9878 0.820811 6.16699 1.83333 6.16699H15.7392L13.3703 3.79669C12.7094 3.1358 12.6586 2.09588 13.2178 1.37668L13.3703 1.20396L13.2178 1.37668Z" fill="#A4B6C0"/>
</svg>
