<svg version="1.0" xmlns="http://www.w3.org/2000/svg"
 width="1280.000000pt" height="1280.000000pt" viewBox="0 0 1280.000000 1280.000000"
 preserveAspectRatio="xMidYMid meet">
<metadata>
Created by potrace 1.16, written by Peter Selinger 2001-2019
</metadata>
<g transform="translate(0.000000,1280.000000) scale(0.100000,-0.100000)"
fill="#3c3c3c" stroke="none">
<path d="M2200 9180 c-282 -73 -509 -301 -580 -584 -28 -109 -27 -284 0 -392
24 -92 75 -206 127 -278 47 -66 4044 -4068 4143 -4148 148 -121 313 -178 510
-178 197 0 362 57 510 178 100 81 4096 4082 4143 4148 52 72 103 186 127 278
27 108 28 283 0 392 -72 285 -299 512 -584 584 -109 28 -284 27 -392 0 -92
-24 -206 -75 -278 -127 -28 -20 -833 -817 -1788 -1772 l-1738 -1736 -1737
1736 c-956 955 -1761 1752 -1789 1772 -72 52 -186 103 -278 127 -107 27 -290
27 -396 0z"/>
</g>
</svg>
