<svg width="16" height="17" viewBox="0 0 16 17" fill="none" xmlns="http://www.w3.org/2000/svg">
<path fill-rule="evenodd" clip-rule="evenodd" d="M3 10.1681C3 7.33383 6.33024 3.66702 8.34964 1.5C8.57131 1.76413 8.81789 2.05054 9.08002 2.35502C10.9685 4.54852 13.6639 7.67928 13.6639 10.1681C13.6639 11.8332 12.3294 15.5 8.33193 15.5C4.33446 15.5 3 11.8332 3 10.1681ZM4.59364 10.1019C4.542 9.99639 4.49094 9.89208 4.43989 9.7892C3.21417 11.2471 5.65839 15.4336 9.11922 14.7047C6.26094 13.5077 5.36399 11.6755 4.59364 10.1019Z" fill=""/>
<mask id="mask0" mask-type="alpha" maskUnits="userSpaceOnUse" x="3" y="1" width="11" height="15">
<path fill-rule="evenodd" clip-rule="evenodd" d="M3 10.1681C3 7.33383 6.33024 3.66702 8.34964 1.5C8.57131 1.76413 8.81789 2.05054 9.08002 2.35502C10.9685 4.54852 13.6639 7.67928 13.6639 10.1681C13.6639 11.8332 12.3294 15.5 8.33193 15.5C4.33446 15.5 3 11.8332 3 10.1681ZM4.59364 10.1019C4.542 9.99639 4.49094 9.89208 4.43989 9.7892C3.21417 11.2471 5.65839 15.4336 9.11922 14.7047C6.26094 13.5077 5.36399 11.6755 4.59364 10.1019Z" fill="white"/>
</mask>
<g mask="url(#mask0)">
<rect y="0.5" width="16" height="16" fill="#A4B6C0"/>
</g>
</svg>
