<svg width="16" height="16" viewBox="0 0 16 16" fill="none" xmlns="http://www.w3.org/2000/svg">
<path fill-rule="evenodd" clip-rule="evenodd" d="M3 9.66807C3 6.83383 6.33024 3.16702 8.34964 1C8.57131 1.26413 8.81789 1.55054 9.08002 1.85502C10.9685 4.04852 13.6639 7.17928 13.6639 9.66807C13.6639 11.3332 12.3294 15 8.33193 15C4.33446 15 3 11.3332 3 9.66807ZM4.59364 9.60186C4.542 9.49639 4.49094 9.39208 4.43989 9.2892C3.21417 10.7471 5.65839 14.9336 9.11922 14.2047C6.26094 13.0077 5.36399 11.1755 4.59364 9.60186Z" fill="black"/>
<mask id="mask0" mask-type="alpha" maskUnits="userSpaceOnUse" x="3" y="1" width="11" height="14">
<path fill-rule="evenodd" clip-rule="evenodd" d="M3 9.66807C3 6.83383 6.33024 3.16702 8.34964 1C8.57131 1.26413 8.81789 1.55054 9.08002 1.85502C10.9685 4.04852 13.6639 7.17928 13.6639 9.66807C13.6639 11.3332 12.3294 15 8.33193 15C4.33446 15 3 11.3332 3 9.66807ZM4.59364 9.60186C4.542 9.49639 4.49094 9.39208 4.43989 9.2892C3.21417 10.7471 5.65839 14.9336 9.11922 14.2047C6.26094 13.0077 5.36399 11.1755 4.59364 9.60186Z" fill="white"/>
</mask>
<g mask="url(#mask0)">
<rect width="16" height="16" fill="#293F94"/>
</g>
</svg>
