<svg width="16" height="16" viewBox="0 0 16 16" fill="none" xmlns="http://www.w3.org/2000/svg">
<path d="M11.3876 14.0226C11.0044 14.3174 10.5032 14.5975 9.92841 14.8038C9.81049 14.848 9.69258 14.7301 9.72206 14.6122C9.81049 14.2437 9.86945 13.8605 9.86945 13.4625C9.86945 11.4137 8.42499 9.6745 7.92385 9.11441C7.82068 9.01123 7.65854 9.01123 7.57011 9.11441C7.06897 9.65976 5.62451 11.399 5.62451 13.4625C5.62451 13.9194 5.69821 14.3764 5.81612 14.7891C5.8456 14.907 5.74242 15.0249 5.62451 14.9954C4.63697 14.7301 3.84105 14.3027 3.54626 14.0668C1.14374 12.0328 1.98388 8.83436 3.10408 7.15407C4.34218 5.25269 5.81612 3.63136 5.74242 1.36149C5.72769 1.09619 6.02247 0.919313 6.2583 1.03723C8.1302 1.98055 9.41253 4.02932 9.75154 5.66539C10.2527 5.19373 10.459 4.45676 10.4738 3.80823C10.4738 3.4987 10.8717 3.33657 11.0928 3.5724C12.7731 5.38534 15.3672 10.9126 11.3876 14.0226Z" fill="black"/>
<mask id="mask0" mask-type="alpha" maskUnits="userSpaceOnUse" x="2" y="1" width="12" height="14">
<path d="M11.3876 14.0226C11.0044 14.3174 10.5032 14.5975 9.92841 14.8038C9.81049 14.848 9.69258 14.7301 9.72206 14.6122C9.81049 14.2437 9.86945 13.8605 9.86945 13.4625C9.86945 11.4137 8.42499 9.6745 7.92385 9.11441C7.82068 9.01123 7.65854 9.01123 7.57011 9.11441C7.06897 9.65976 5.62451 11.399 5.62451 13.4625C5.62451 13.9194 5.69821 14.3764 5.81612 14.7891C5.8456 14.907 5.74242 15.0249 5.62451 14.9954C4.63697 14.7301 3.84105 14.3027 3.54626 14.0668C1.14374 12.0328 1.98388 8.83436 3.10408 7.15407C4.34218 5.25269 5.81612 3.63136 5.74242 1.36149C5.72769 1.09619 6.02247 0.919313 6.2583 1.03723C8.1302 1.98055 9.41253 4.02932 9.75154 5.66539C10.2527 5.19373 10.459 4.45676 10.4738 3.80823C10.4738 3.4987 10.8717 3.33657 11.0928 3.5724C12.7731 5.38534 15.3672 10.9126 11.3876 14.0226Z" fill="white"/>
</mask>
<g mask="url(#mask0)">
<rect width="16" height="16" fill="#293F94"/>
</g>
</svg>
