<svg width="16" height="16" viewBox="0 0 16 16" fill="none" xmlns="http://www.w3.org/2000/svg">
<path fill-rule="evenodd" clip-rule="evenodd" d="M15.6436 2.78567C15.7913 2.83438 15.9079 2.94871 15.9592 3.09507C16.0279 3.25416 16.009 3.43738 15.9091 3.57914C15.6336 4.00333 14.6669 5.41062 13.8154 5.54536C13.712 5.55358 13.6082 5.55358 13.5048 5.54536C13.0553 5.52736 12.6133 5.42404 12.2025 5.24095C12.453 5.77108 12.5435 6.36227 12.463 6.94268C12.3056 7.43533 12.0017 7.86868 11.5915 8.18529C11.2504 8.48866 10.8852 8.76403 10.4995 9.00871H10.4545L10.3994 9.03366H10.2992C10.2075 9.04024 10.1154 9.04024 10.0237 9.03366C9.57613 9.01672 9.13587 8.91511 8.72641 8.73423C8.93277 9.28218 8.98304 9.8763 8.87167 10.4509V10.5308C8.71199 11.0209 8.40839 11.452 8.00013 11.7684C7.66226 12.0647 7.30226 12.335 6.92324 12.5768C6.88891 12.5996 6.8519 12.618 6.81304 12.6317H6.72789C6.63617 12.638 6.54413 12.638 6.45241 12.6317C5.99946 12.6148 5.55398 12.5114 5.14009 12.3273C5.36597 12.8051 5.46595 13.3324 5.4306 13.8594V13.9342C5.27213 14.4263 4.96624 14.8582 4.55406 15.1719C4.53296 15.1943 4.50945 15.2144 4.48394 15.2317C4.16785 15.4996 3.83309 15.7447 3.48217 15.9653L3.43208 15.9953H3.387H3.29684C3.20512 16.0016 3.11308 16.0016 3.02136 15.9953C2.29991 13.8515 1.90552 13.2756 1.26469 12.3398C0.979337 11.9231 0.64512 11.435 0.211404 10.7054C0.0178097 10.1984 -0.0442112 9.65082 0.0310857 9.11351C0.0289138 9.10364 0.0289138 9.09343 0.0310857 9.08356C0.0286534 9.07204 0.0286534 9.06015 0.0310857 9.04863C0.201342 8.57493 0.503681 8.15944 0.902622 7.85093C1.22194 7.55906 1.56731 7.29681 1.93444 7.06744C1.95193 7.04936 1.97223 7.03419 1.99455 7.02252H2.03462H2.06467H2.11476C2.13805 7.0197 2.16159 7.0197 2.18488 7.02252H2.21494C2.72586 6.97197 3.24148 7.0456 3.71758 7.23711C3.53999 6.7242 3.49519 6.17493 3.58736 5.64018C3.58506 5.62865 3.58506 5.61678 3.58736 5.60525C3.59374 5.57036 3.60557 5.53668 3.62242 5.50544C3.80312 5.07735 4.08699 4.70026 4.44887 4.40755C4.76252 4.12314 5.0974 3.86289 5.45064 3.62905C5.48695 3.59854 5.52742 3.57334 5.57085 3.55419C5.59573 3.53988 5.62281 3.52976 5.65099 3.52425H5.72112C6.2324 3.47724 6.74756 3.55252 7.22377 3.74383C7.03495 3.25811 6.96125 2.73552 7.00839 2.21676C7.00621 2.18852 7.00621 2.16016 7.00839 2.13193V2.07703C7.17783 1.59882 7.48219 1.17948 7.88493 0.869352C8.19684 0.582899 8.5319 0.322519 8.8867 0.0908484L8.93679 0.0559156L9.0019 0.0209827H9.03195H9.06702H9.13714H9.16218C10.4094 -0.158672 12.1374 0.84939 13.6401 1.74267C14.2766 2.14698 14.947 2.49593 15.6436 2.78567ZM8.71139 6.69815C8.40084 6.17416 8.08028 5.6302 7.79978 5.09124V5.06628C7.35969 4.84006 6.89386 4.66748 6.41234 4.55227C6.72777 5.24481 7.09617 5.91216 7.51428 6.54844C7.65453 6.773 7.78976 6.99258 7.91999 7.21216C8.3946 7.5028 8.89818 7.74363 9.42264 7.93078L9.36219 7.82462L9.36213 7.82452L9.362 7.82428C9.1665 7.48091 8.94715 7.09566 8.71139 6.69815ZM4.2936 8.58452C4.57409 9.12848 4.89466 9.67243 5.20521 10.1914C5.46567 10.6306 5.70609 11.0498 5.91646 11.4241C5.39187 11.2372 4.88826 10.9964 4.41381 10.7054C4.34178 10.584 4.26669 10.4626 4.19107 10.3403L4.19099 10.3401C4.12992 10.2414 4.06851 10.142 4.0081 10.0417C3.58958 9.40656 3.22276 8.73904 2.91116 8.04556C3.39211 8.16035 3.8578 8.3312 4.29861 8.55458L4.2936 8.58452ZM11.1784 3.33373C11.254 3.45602 11.3291 3.57747 11.4011 3.69891C12.1525 4.13807 13.0891 4.60717 13.6551 4.51235C14.0929 4.25847 14.4638 3.90436 14.737 3.47934C14.2361 3.24479 13.7352 2.94536 13.1492 2.59104C12.0873 1.96724 10.8251 1.22866 9.9085 1.03903C10.2201 1.73062 10.5834 2.39789 10.9954 3.03519C11.0559 3.13555 11.1173 3.23492 11.1784 3.33373Z" fill="black"/>
<mask id="mask0" mask-type="alpha" maskUnits="userSpaceOnUse" x="0" y="0" width="16" height="16">
<path fill-rule="evenodd" clip-rule="evenodd" d="M15.6436 2.78567C15.7913 2.83438 15.9079 2.94871 15.9592 3.09507C16.0279 3.25416 16.009 3.43738 15.9091 3.57914C15.6336 4.00333 14.6669 5.41062 13.8154 5.54536C13.712 5.55358 13.6082 5.55358 13.5048 5.54536C13.0553 5.52736 12.6133 5.42404 12.2025 5.24095C12.453 5.77108 12.5435 6.36227 12.463 6.94268C12.3056 7.43533 12.0017 7.86868 11.5915 8.18529C11.2504 8.48866 10.8852 8.76403 10.4995 9.00871H10.4545L10.3994 9.03366H10.2992C10.2075 9.04024 10.1154 9.04024 10.0237 9.03366C9.57613 9.01672 9.13587 8.91511 8.72641 8.73423C8.93277 9.28218 8.98304 9.8763 8.87167 10.4509V10.5308C8.71199 11.0209 8.40839 11.452 8.00013 11.7684C7.66226 12.0647 7.30226 12.335 6.92324 12.5768C6.88891 12.5996 6.8519 12.618 6.81304 12.6317H6.72789C6.63617 12.638 6.54413 12.638 6.45241 12.6317C5.99946 12.6148 5.55398 12.5114 5.14009 12.3273C5.36597 12.8051 5.46595 13.3324 5.4306 13.8594V13.9342C5.27213 14.4263 4.96624 14.8582 4.55406 15.1719C4.53296 15.1943 4.50945 15.2144 4.48394 15.2317C4.16785 15.4996 3.83309 15.7447 3.48217 15.9653L3.43208 15.9953H3.387H3.29684C3.20512 16.0016 3.11308 16.0016 3.02136 15.9953C2.29991 13.8515 1.90552 13.2756 1.26469 12.3398C0.979337 11.9231 0.64512 11.435 0.211404 10.7054C0.0178097 10.1984 -0.0442112 9.65082 0.0310857 9.11351C0.0289138 9.10364 0.0289138 9.09343 0.0310857 9.08356C0.0286534 9.07204 0.0286534 9.06015 0.0310857 9.04863C0.201342 8.57493 0.503681 8.15944 0.902622 7.85093C1.22194 7.55906 1.56731 7.29681 1.93444 7.06744C1.95193 7.04936 1.97223 7.03419 1.99455 7.02252H2.03462H2.06467H2.11476C2.13805 7.0197 2.16159 7.0197 2.18488 7.02252H2.21494C2.72586 6.97197 3.24148 7.0456 3.71758 7.23711C3.53999 6.7242 3.49519 6.17493 3.58736 5.64018C3.58506 5.62865 3.58506 5.61678 3.58736 5.60525C3.59374 5.57036 3.60557 5.53668 3.62242 5.50544C3.80312 5.07735 4.08699 4.70026 4.44887 4.40755C4.76252 4.12314 5.0974 3.86289 5.45064 3.62905C5.48695 3.59854 5.52742 3.57334 5.57085 3.55419C5.59573 3.53988 5.62281 3.52976 5.65099 3.52425H5.72112C6.2324 3.47724 6.74756 3.55252 7.22377 3.74383C7.03495 3.25811 6.96125 2.73552 7.00839 2.21676C7.00621 2.18852 7.00621 2.16016 7.00839 2.13193V2.07703C7.17783 1.59882 7.48219 1.17948 7.88493 0.869352C8.19684 0.582899 8.5319 0.322519 8.8867 0.0908484L8.93679 0.0559156L9.0019 0.0209827H9.03195H9.06702H9.13714H9.16218C10.4094 -0.158672 12.1374 0.84939 13.6401 1.74267C14.2766 2.14698 14.947 2.49593 15.6436 2.78567ZM8.71139 6.69815C8.40084 6.17416 8.08028 5.6302 7.79978 5.09124V5.06628C7.35969 4.84006 6.89386 4.66748 6.41234 4.55227C6.72777 5.24481 7.09617 5.91216 7.51428 6.54844C7.65453 6.773 7.78976 6.99258 7.91999 7.21216C8.3946 7.5028 8.89818 7.74363 9.42264 7.93078L9.36219 7.82462L9.36213 7.82452L9.362 7.82428C9.1665 7.48091 8.94715 7.09566 8.71139 6.69815ZM4.2936 8.58452C4.57409 9.12848 4.89466 9.67243 5.20521 10.1914C5.46567 10.6306 5.70609 11.0498 5.91646 11.4241C5.39187 11.2372 4.88826 10.9964 4.41381 10.7054C4.34178 10.584 4.26669 10.4626 4.19107 10.3403L4.19099 10.3401C4.12992 10.2414 4.06851 10.142 4.0081 10.0417C3.58958 9.40656 3.22276 8.73904 2.91116 8.04556C3.39211 8.16035 3.8578 8.3312 4.29861 8.55458L4.2936 8.58452ZM11.1784 3.33373C11.254 3.45602 11.3291 3.57747 11.4011 3.69891C12.1525 4.13807 13.0891 4.60717 13.6551 4.51235C14.0929 4.25847 14.4638 3.90436 14.737 3.47934C14.2361 3.24479 13.7352 2.94536 13.1492 2.59104C12.0873 1.96724 10.8251 1.22866 9.9085 1.03903C10.2201 1.73062 10.5834 2.39789 10.9954 3.03519C11.0559 3.13555 11.1173 3.23492 11.1784 3.33373Z" fill="white"/>
</mask>
<g mask="url(#mask0)">
<rect width="16" height="16" fill="#293F94"/>
</g>
</svg>
