<svg width="32" height="32" viewBox="0 0 32 32" fill="none" xmlns="http://www.w3.org/2000/svg">
<path fill-rule="evenodd" clip-rule="evenodd" d="M4.00507 6.85156C4.05823 6.3294 4.58989 5.91168 5.12155 6.01611L9.10901 6.59048C9.53434 6.64269 9.85333 6.95599 9.95967 7.37371L10.5977 10.0889H25.3943C25.607 10.0889 25.7665 10.1933 25.8728 10.35C25.9791 10.5066 26.0323 10.7677 25.9791 10.9244L24.3842 17.28C24.2778 17.5411 24.012 17.75 23.7462 17.75L12.8838 19.1598L13.0433 19.8386H23.8525C24.3842 19.8386 24.8627 20.3085 24.8627 20.8307C24.8627 21.3528 24.4373 21.8228 23.8525 21.8228H12.1926C11.7141 21.8228 11.2888 21.5095 11.1825 21.0395L8.09885 8.41802L4.80256 7.94808C4.32406 7.89586 3.9519 7.37371 4.00507 6.85156ZM21.1409 26C20.2013 26 19.4396 25.2519 19.4396 24.3291C19.4396 23.4063 20.2013 22.6582 21.1409 22.6582C22.0806 22.6582 22.8423 23.4063 22.8423 24.3291C22.8423 25.2519 22.0806 26 21.1409 26ZM12.671 24.3291C12.671 25.2519 13.4327 26 14.3723 26C15.3119 26 16.0736 25.2519 16.0736 24.3291C16.0736 23.4063 15.3119 22.6582 14.3723 22.6582C13.4327 22.6582 12.671 23.4063 12.671 24.3291Z" fill="#A4B6C0"/>
</svg>
