<svg width="16" height="16" viewBox="0 0 16 16" fill="none" xmlns="http://www.w3.org/2000/svg">
<path fill-rule="evenodd" clip-rule="evenodd" d="M7.98674 7.1517C8.51939 6.52504 9.49071 5.20907 9.49071 3.67376C9.49071 2.13846 8.51939 0.791152 7.98674 0.164497C7.79874 -0.0548323 7.48541 -0.0548323 7.29742 0.164497C6.76476 0.791152 5.79344 2.10713 5.79344 3.64243C5.79344 5.17773 6.76476 6.52504 7.29742 7.12036C7.48541 7.33969 7.79874 7.33969 7.98674 7.1517ZM6.80842 10.7982C7.09702 10.8109 7.31667 10.6131 7.29855 10.33C7.28052 9.50593 7.05931 7.8905 5.99766 6.74142C4.94145 5.6232 3.33154 5.33438 2.49117 5.25984C2.20258 5.2471 1.98293 5.44491 2.00104 5.72806C2.01908 6.5521 2.24029 8.16753 3.30194 9.31661C4.36359 10.4657 5.99892 10.7182 6.80842 10.7982ZM7.95426 10.3613C8.00316 9.5427 8.19895 7.89097 9.25516 6.77275C10.3168 5.62367 11.9576 5.3403 12.7616 5.29118C13.0194 5.27299 13.2699 5.47624 13.2518 5.75939C13.2029 6.57799 13.0071 8.22972 11.9509 9.34794C10.8947 10.4662 9.2539 10.7495 8.4444 10.8295C8.18666 10.8477 7.93615 10.6445 7.95426 10.3613ZM6.80842 15.9994C7.09702 16.0122 7.31667 15.8144 7.29855 15.5312C7.28052 14.7072 7.05931 13.0917 5.99766 11.9427C4.94145 10.8244 3.33154 10.5356 2.49117 10.4611C2.20258 10.4483 1.98293 10.6461 2.00104 10.9293C2.01908 11.7533 2.24029 13.3688 3.30194 14.5178C4.36359 15.6669 5.99892 15.9194 6.80842 15.9994ZM9.2553 11.9113C10.3115 10.7931 11.9523 10.5097 12.7618 10.4298C13.0504 10.417 13.2646 10.6457 13.2519 10.898C13.203 11.7166 13.0072 13.3683 11.951 14.4865C10.8948 15.6047 9.25404 15.8881 8.44453 15.9681C8.1868 15.9863 7.93629 15.783 7.9544 15.4999C8.00329 14.6813 8.19909 13.0296 9.2553 11.9113Z" fill="black"/>
<mask id="mask0" mask-type="alpha" maskUnits="userSpaceOnUse" x="2" y="0" width="12" height="16">
<path fill-rule="evenodd" clip-rule="evenodd" d="M7.98674 7.1517C8.51939 6.52504 9.49071 5.20907 9.49071 3.67376C9.49071 2.13846 8.51939 0.791152 7.98674 0.164497C7.79874 -0.0548323 7.48541 -0.0548323 7.29742 0.164497C6.76476 0.791152 5.79344 2.10713 5.79344 3.64243C5.79344 5.17773 6.76476 6.52504 7.29742 7.12036C7.48541 7.33969 7.79874 7.33969 7.98674 7.1517ZM6.80842 10.7982C7.09702 10.8109 7.31667 10.6131 7.29855 10.33C7.28052 9.50593 7.05931 7.8905 5.99766 6.74142C4.94145 5.6232 3.33154 5.33438 2.49117 5.25984C2.20258 5.2471 1.98293 5.44491 2.00104 5.72806C2.01908 6.5521 2.24029 8.16753 3.30194 9.31661C4.36359 10.4657 5.99892 10.7182 6.80842 10.7982ZM7.95426 10.3613C8.00316 9.5427 8.19895 7.89097 9.25516 6.77275C10.3168 5.62367 11.9576 5.3403 12.7616 5.29118C13.0194 5.27299 13.2699 5.47624 13.2518 5.75939C13.2029 6.57799 13.0071 8.22972 11.9509 9.34794C10.8947 10.4662 9.2539 10.7495 8.4444 10.8295C8.18666 10.8477 7.93615 10.6445 7.95426 10.3613ZM6.80842 15.9994C7.09702 16.0122 7.31667 15.8144 7.29855 15.5312C7.28052 14.7072 7.05931 13.0917 5.99766 11.9427C4.94145 10.8244 3.33154 10.5356 2.49117 10.4611C2.20258 10.4483 1.98293 10.6461 2.00104 10.9293C2.01908 11.7533 2.24029 13.3688 3.30194 14.5178C4.36359 15.6669 5.99892 15.9194 6.80842 15.9994ZM9.2553 11.9113C10.3115 10.7931 11.9523 10.5097 12.7618 10.4298C13.0504 10.417 13.2646 10.6457 13.2519 10.898C13.203 11.7166 13.0072 13.3683 11.951 14.4865C10.8948 15.6047 9.25404 15.8881 8.44453 15.9681C8.1868 15.9863 7.93629 15.783 7.9544 15.4999C8.00329 14.6813 8.19909 13.0296 9.2553 11.9113Z" fill="white"/>
</mask>
<g mask="url(#mask0)">
<rect width="16" height="16" fill="#293F94"/>
</g>
</svg>
