<svg width="22" height="20" viewBox="0 0 22 20" fill="none" xmlns="http://www.w3.org/2000/svg">
<path fill-rule="evenodd" clip-rule="evenodd" d="M0.00506592 0.851555C0.0582314 0.329402 0.589893 -0.0883211 1.12155 0.0161096L5.10901 0.590479C5.53434 0.642694 5.85333 0.955986 5.95967 1.37371L6.59766 4.08891H21.3943C21.607 4.08891 21.7665 4.19334 21.8728 4.34998C21.9791 4.50663 22.0323 4.76771 21.9791 4.92435L20.3842 11.28C20.2778 11.5411 20.012 11.75 19.7462 11.75L8.8838 13.1598L9.0433 13.8386H19.8525C20.3842 13.8386 20.8627 14.3085 20.8627 14.8307C20.8627 15.3528 20.4373 15.8228 19.8525 15.8228H8.19264C7.71415 15.8228 7.28882 15.5095 7.18249 15.0395L4.09885 2.41802L0.802557 1.94808C0.324062 1.89586 -0.0480995 1.37371 0.00506592 0.851555ZM17.1409 20C16.2013 20 15.4396 19.2519 15.4396 18.3291C15.4396 17.4063 16.2013 16.6582 17.1409 16.6582C18.0806 16.6582 18.8423 17.4063 18.8423 18.3291C18.8423 19.2519 18.0806 20 17.1409 20ZM8.67097 18.3291C8.67097 19.2519 9.43268 20 10.3723 20C11.3119 20 12.0736 19.2519 12.0736 18.3291C12.0736 17.4063 11.3119 16.6582 10.3723 16.6582C9.43268 16.6582 8.67097 17.4063 8.67097 18.3291Z" fill="#fff"/>
</svg>
