<svg width="32" height="32" viewBox="0 0 32 32" fill="none" xmlns="http://www.w3.org/2000/svg">
<path fill-rule="evenodd" clip-rule="evenodd" d="M19.5046 16.5003L24.3769 11.6278C25.2077 10.7969 25.2077 9.45399 24.3769 8.62314C23.5461 7.79229 22.2031 7.79229 21.3723 8.62314L16.5 13.4956L11.6277 8.62314C10.7969 7.79229 9.45394 7.79229 8.62312 8.62314C7.79229 9.45399 7.79229 10.7969 8.62312 11.6278L13.4954 16.5003L8.62312 21.3727C7.79229 22.2036 7.79229 23.5465 8.62312 24.3774C9.03747 24.7918 9.58143 25 10.1254 25C10.6694 25 11.2133 24.7918 11.6277 24.3774L16.5 19.5049L21.3723 24.3774C21.7867 24.7918 22.3306 25 22.8746 25C23.4186 25 23.9625 24.7918 24.3769 24.3774C25.2077 23.5465 25.2077 22.2036 24.3769 21.3727L19.5046 16.5003Z" fill="#3C3C3C"/>
<mask id="mask0" mask-type="alpha" maskUnits="userSpaceOnUse" x="8" y="8" width="17" height="17">
<path fill-rule="evenodd" clip-rule="evenodd" d="M19.5046 16.5003L24.3769 11.6278C25.2077 10.7969 25.2077 9.45399 24.3769 8.62314C23.5461 7.79229 22.2031 7.79229 21.3723 8.62314L16.5 13.4956L11.6277 8.62314C10.7969 7.79229 9.45394 7.79229 8.62312 8.62314C7.79229 9.45399 7.79229 10.7969 8.62312 11.6278L13.4954 16.5003L8.62312 21.3727C7.79229 22.2036 7.79229 23.5465 8.62312 24.3774C9.03747 24.7918 9.58143 25 10.1254 25C10.6694 25 11.2133 24.7918 11.6277 24.3774L16.5 19.5049L21.3723 24.3774C21.7867 24.7918 22.3306 25 22.8746 25C23.4186 25 23.9625 24.7918 24.3769 24.3774C25.2077 23.5465 25.2077 22.2036 24.3769 21.3727L19.5046 16.5003Z" fill="white"/>
</mask>
<g mask="url(#mask0)">
<rect width="32" height="32" fill="black"/>
</g>
</svg>
