<svg width="17" height="18" viewBox="0 0 17 18" fill="none" xmlns="http://www.w3.org/2000/svg">
    <path fill-rule="evenodd" clip-rule="evenodd" d="M11.5046 8.56456L16.3769 3.68434C17.2077 2.85217 17.2077 1.50708 16.3769 0.674909C15.5461 -0.157261 14.2031 -0.157261 13.3723 0.674909L8.5 5.55513L3.62768 0.674909C2.79686 -0.157261 1.45394 -0.157261 0.623117 0.674909C-0.207706 1.50708 -0.207706 2.85217 0.623117 3.68434L5.49544 8.56456L0.623117 13.4448C-0.207706 14.2769 -0.207706 15.622 0.623117 16.4542C1.03747 16.8692 1.58143 17.0778 2.1254 17.0778C2.66936 17.0778 3.21333 16.8692 3.62768 16.4542L8.5 11.574L13.3723 16.4542C13.7867 16.8692 14.3306 17.0778 14.8746 17.0778C15.4186 17.0778 15.9625 16.8692 16.3769 16.4542C17.2077 15.622 17.2077 14.2769 16.3769 13.4448L11.5046 8.56456Z" fill="#1A1A1A"/>
</svg>
