<svg width="24" height="24" viewBox="0 0 24 24" fill="none" xmlns="http://www.w3.org/2000/svg">
<path d="M12 1C5.92487 1 1 5.92487 1 12C1 18.0751 5.92487 23 12 23C18.0751 23 23 18.0751 23 12C23 5.92487 18.0751 1 12 1Z" fill="#A4B6C0"/>
<path fill-rule="evenodd" clip-rule="evenodd" d="M10.0559 12.0002L6.90319 8.8474C6.3656 8.30979 6.3656 7.44081 6.90319 6.90321C7.44078 6.3656 8.30973 6.3656 8.84732 6.90321L12 10.056L15.1527 6.90321C15.6903 6.3656 16.5592 6.3656 17.0968 6.90321C17.6344 7.44081 17.6344 8.30979 17.0968 8.8474L13.9441 12.0002L17.0968 15.1529C17.6344 15.6906 17.6344 16.5595 17.0968 17.0971C16.8287 17.3653 16.4767 17.5 16.1247 17.5C15.7728 17.5 15.4208 17.3653 15.1527 17.0971L12 13.9444L8.84732 17.0971C8.57921 17.3653 8.22724 17.5 7.87526 17.5C7.52328 17.5 7.1713 17.3653 6.90319 17.0971C6.3656 16.5595 6.3656 15.6906 6.90319 15.1529L10.0559 12.0002Z" fill="white"/>
</svg>
