<svg width="32" height="32" viewBox="0 0 32 32" fill="none" xmlns="http://www.w3.org/2000/svg">
<path fill-rule="evenodd" clip-rule="evenodd" d="M24.5858 9.58579C25.3668 8.80474 26.6332 8.80474 27.4142 9.58579C28.1953 10.3668 28.1953 11.6332 27.4142 12.4142L17.4142 22.4142C16.6332 23.1953 15.3668 23.1953 14.5858 22.4142L4.58579 12.4142C3.80474 11.6332 3.80474 10.3668 4.58579 9.58579C5.36684 8.80474 6.63317 8.80474 7.41421 9.58579L16 18.1716L24.5858 9.58579Z" fill="#1A1A1A"/>
<mask id="mask0" mask-type="alpha" maskUnits="userSpaceOnUse" x="4" y="9" width="24" height="14">
<path fill-rule="evenodd" clip-rule="evenodd" d="M24.5858 9.58579C25.3668 8.80474 26.6332 8.80474 27.4142 9.58579C28.1953 10.3668 28.1953 11.6332 27.4142 12.4142L17.4142 22.4142C16.6332 23.1953 15.3668 23.1953 14.5858 22.4142L4.58579 12.4142C3.80474 11.6332 3.80474 10.3668 4.58579 9.58579C5.36684 8.80474 6.63317 8.80474 7.41421 9.58579L16 18.1716L24.5858 9.58579Z" fill="white"/>
</mask>
<g mask="url(#mask0)">
<rect width="32" height="32" fill="#3C3C3C"/>
</g>
</svg>
