<svg width="41" height="40" viewBox="0 0 41 40" fill="none" xmlns="http://www.w3.org/2000/svg">
<path fill-rule="evenodd" clip-rule="evenodd" d="M34.1676 6H5.87533C3.74691 6 2.02148 7.72542 2.02148 9.85384C2.02148 10.8305 2.51469 11.7411 3.33268 12.2747L15.1042 19.9536C15.4005 20.1469 15.7052 20.3209 16.0168 20.4759L18.3516 22.0412C19.3623 22.7188 20.6821 22.7188 21.6928 22.0412L24.0315 20.4732C24.3412 20.3189 24.6442 20.1458 24.9387 19.9536L36.7103 12.2747C37.5283 11.7411 38.0215 10.8305 38.0215 9.85384C38.0215 7.72542 36.2961 6 34.1676 6ZM2.06431 30.0002V19.6861C2.06431 18.0864 3.84929 17.1341 5.17804 18.0249L16.1241 25.3636C18.4823 26.9446 21.562 26.9446 23.9202 25.3636L34.8764 18.0181C36.2052 17.1273 37.9901 18.0796 37.9901 19.6794V30.0002C37.9901 32.2093 36.1993 34.0002 33.9901 34.0002H6.06432C3.85518 34.0002 2.06431 32.2093 2.06431 30.0002Z" fill="#293F94"/>
</svg>
