<svg width="16" height="17" viewBox="0 0 16 17" fill="none" xmlns="http://www.w3.org/2000/svg">
<path fill-rule="evenodd" clip-rule="evenodd" d="M15.6436 3.28567C15.7913 3.33438 15.9079 3.44871 15.9592 3.59507C16.0279 3.75416 16.009 3.93738 15.9091 4.07914C15.6336 4.50333 14.6669 5.91062 13.8154 6.04536C13.712 6.05358 13.6082 6.05358 13.5048 6.04536C13.0553 6.02736 12.6133 5.92404 12.2025 5.74095C12.453 6.27108 12.5435 6.86227 12.463 7.44268C12.3056 7.93533 12.0017 8.36868 11.5915 8.68529C11.2504 8.98866 10.8852 9.26403 10.4995 9.50871H10.4545L10.3994 9.53366H10.2992C10.2075 9.54024 10.1154 9.54024 10.0237 9.53366C9.57613 9.51672 9.13587 9.41511 8.72641 9.23423C8.93277 9.78218 8.98304 10.3763 8.87167 10.9509V11.0308C8.71199 11.5209 8.40839 11.952 8.00013 12.2684C7.66226 12.5647 7.30226 12.835 6.92324 13.0768C6.88891 13.0996 6.8519 13.118 6.81304 13.1317H6.72789C6.63617 13.138 6.54413 13.138 6.45241 13.1317C5.99946 13.1148 5.55398 13.0114 5.14009 12.8273C5.36597 13.3051 5.46595 13.8324 5.4306 14.3594V14.4342C5.27213 14.9263 4.96624 15.3582 4.55406 15.6719C4.53296 15.6943 4.50945 15.7144 4.48394 15.7317C4.16785 15.9996 3.83309 16.2447 3.48217 16.4653L3.43208 16.4953H3.387H3.29684C3.20512 16.5016 3.11308 16.5016 3.02136 16.4953C2.29991 14.3515 1.90552 13.7756 1.26469 12.8398C0.979337 12.4231 0.64512 11.935 0.211404 11.2054C0.0178097 10.6984 -0.0442112 10.1508 0.0310857 9.61351C0.0289138 9.60364 0.0289138 9.59343 0.0310857 9.58356C0.0286534 9.57204 0.0286534 9.56015 0.0310857 9.54863C0.201342 9.07493 0.503681 8.65944 0.902622 8.35093C1.22194 8.05906 1.56731 7.79681 1.93444 7.56744C1.95193 7.54936 1.97223 7.53419 1.99455 7.52252H2.03462H2.06467H2.11476C2.13805 7.5197 2.16159 7.5197 2.18488 7.52252H2.21494C2.72586 7.47197 3.24148 7.5456 3.71758 7.73711C3.53999 7.2242 3.49519 6.67493 3.58736 6.14018C3.58506 6.12865 3.58506 6.11678 3.58736 6.10525C3.59374 6.07036 3.60557 6.03668 3.62242 6.00544C3.80312 5.57735 4.08699 5.20026 4.44887 4.90755C4.76252 4.62314 5.0974 4.36289 5.45064 4.12905C5.48695 4.09854 5.52742 4.07334 5.57085 4.05419C5.59573 4.03988 5.62281 4.02976 5.65099 4.02425H5.72112C6.2324 3.97724 6.74756 4.05252 7.22377 4.24383C7.03495 3.75811 6.96125 3.23552 7.00839 2.71676C7.00621 2.68852 7.00621 2.66016 7.00839 2.63193V2.57703C7.17783 2.09882 7.48219 1.67948 7.88493 1.36935C8.19684 1.0829 8.5319 0.822519 8.8867 0.590848L8.93679 0.555916L9.0019 0.520983H9.03195H9.06702H9.13714H9.16218C10.4094 0.341328 12.1374 1.34939 13.6401 2.24267C14.2766 2.64698 14.947 2.99593 15.6436 3.28567ZM8.71139 7.19815C8.40084 6.67416 8.08028 6.1302 7.79978 5.59124V5.56628C7.35969 5.34006 6.89386 5.16748 6.41234 5.05227C6.72777 5.74481 7.09617 6.41216 7.51428 7.04844C7.65453 7.273 7.78976 7.49258 7.91999 7.71216C8.3946 8.0028 8.89818 8.24363 9.42264 8.43078L9.36219 8.32462L9.36213 8.32452L9.362 8.32428C9.1665 7.98091 8.94715 7.59566 8.71139 7.19815ZM4.2936 9.08452C4.57409 9.62848 4.89466 10.1724 5.20521 10.6914C5.46567 11.1306 5.70609 11.5498 5.91646 11.9241C5.39187 11.7372 4.88826 11.4964 4.41381 11.2054C4.34178 11.084 4.26669 10.9626 4.19107 10.8403L4.19099 10.8401C4.12992 10.7414 4.06851 10.642 4.0081 10.5417C3.58958 9.90656 3.22276 9.23904 2.91116 8.54556C3.39211 8.66035 3.8578 8.8312 4.29861 9.05458L4.2936 9.08452ZM11.1784 3.83373C11.254 3.95602 11.3291 4.07747 11.4011 4.19891C12.1525 4.63807 13.0891 5.10717 13.6551 5.01235C14.0929 4.75847 14.4638 4.40436 14.737 3.97934C14.2361 3.74479 13.7352 3.44536 13.1492 3.09104C12.0873 2.46724 10.8251 1.72866 9.9085 1.53903C10.2201 2.23062 10.5834 2.89789 10.9954 3.53519C11.0559 3.63555 11.1173 3.73492 11.1784 3.83373Z" fill=""/>
<mask id="mask0" mask-type="alpha" maskUnits="userSpaceOnUse" x="0" y="0" width="16" height="17">
<path fill-rule="evenodd" clip-rule="evenodd" d="M15.6436 3.28567C15.7913 3.33438 15.9079 3.44871 15.9592 3.59507C16.0279 3.75416 16.009 3.93738 15.9091 4.07914C15.6336 4.50333 14.6669 5.91062 13.8154 6.04536C13.712 6.05358 13.6082 6.05358 13.5048 6.04536C13.0553 6.02736 12.6133 5.92404 12.2025 5.74095C12.453 6.27108 12.5435 6.86227 12.463 7.44268C12.3056 7.93533 12.0017 8.36868 11.5915 8.68529C11.2504 8.98866 10.8852 9.26403 10.4995 9.50871H10.4545L10.3994 9.53366H10.2992C10.2075 9.54024 10.1154 9.54024 10.0237 9.53366C9.57613 9.51672 9.13587 9.41511 8.72641 9.23423C8.93277 9.78218 8.98304 10.3763 8.87167 10.9509V11.0308C8.71199 11.5209 8.40839 11.952 8.00013 12.2684C7.66226 12.5647 7.30226 12.835 6.92324 13.0768C6.88891 13.0996 6.8519 13.118 6.81304 13.1317H6.72789C6.63617 13.138 6.54413 13.138 6.45241 13.1317C5.99946 13.1148 5.55398 13.0114 5.14009 12.8273C5.36597 13.3051 5.46595 13.8324 5.4306 14.3594V14.4342C5.27213 14.9263 4.96624 15.3582 4.55406 15.6719C4.53296 15.6943 4.50945 15.7144 4.48394 15.7317C4.16785 15.9996 3.83309 16.2447 3.48217 16.4653L3.43208 16.4953H3.387H3.29684C3.20512 16.5016 3.11308 16.5016 3.02136 16.4953C2.29991 14.3515 1.90552 13.7756 1.26469 12.8398C0.979337 12.4231 0.64512 11.935 0.211404 11.2054C0.0178097 10.6984 -0.0442112 10.1508 0.0310857 9.61351C0.0289138 9.60364 0.0289138 9.59343 0.0310857 9.58356C0.0286534 9.57204 0.0286534 9.56015 0.0310857 9.54863C0.201342 9.07493 0.503681 8.65944 0.902622 8.35093C1.22194 8.05906 1.56731 7.79681 1.93444 7.56744C1.95193 7.54936 1.97223 7.53419 1.99455 7.52252H2.03462H2.06467H2.11476C2.13805 7.5197 2.16159 7.5197 2.18488 7.52252H2.21494C2.72586 7.47197 3.24148 7.5456 3.71758 7.73711C3.53999 7.2242 3.49519 6.67493 3.58736 6.14018C3.58506 6.12865 3.58506 6.11678 3.58736 6.10525C3.59374 6.07036 3.60557 6.03668 3.62242 6.00544C3.80312 5.57735 4.08699 5.20026 4.44887 4.90755C4.76252 4.62314 5.0974 4.36289 5.45064 4.12905C5.48695 4.09854 5.52742 4.07334 5.57085 4.05419C5.59573 4.03988 5.62281 4.02976 5.65099 4.02425H5.72112C6.2324 3.97724 6.74756 4.05252 7.22377 4.24383C7.03495 3.75811 6.96125 3.23552 7.00839 2.71676C7.00621 2.68852 7.00621 2.66016 7.00839 2.63193V2.57703C7.17783 2.09882 7.48219 1.67948 7.88493 1.36935C8.19684 1.0829 8.5319 0.822519 8.8867 0.590848L8.93679 0.555916L9.0019 0.520983H9.03195H9.06702H9.13714H9.16218C10.4094 0.341328 12.1374 1.34939 13.6401 2.24267C14.2766 2.64698 14.947 2.99593 15.6436 3.28567ZM8.71139 7.19815C8.40084 6.67416 8.08028 6.1302 7.79978 5.59124V5.56628C7.35969 5.34006 6.89386 5.16748 6.41234 5.05227C6.72777 5.74481 7.09617 6.41216 7.51428 7.04844C7.65453 7.273 7.78976 7.49258 7.91999 7.71216C8.3946 8.0028 8.89818 8.24363 9.42264 8.43078L9.36219 8.32462L9.36213 8.32452L9.362 8.32428C9.1665 7.98091 8.94715 7.59566 8.71139 7.19815ZM4.2936 9.08452C4.57409 9.62848 4.89466 10.1724 5.20521 10.6914C5.46567 11.1306 5.70609 11.5498 5.91646 11.9241C5.39187 11.7372 4.88826 11.4964 4.41381 11.2054C4.34178 11.084 4.26669 10.9626 4.19107 10.8403L4.19099 10.8401C4.12992 10.7414 4.06851 10.642 4.0081 10.5417C3.58958 9.90656 3.22276 9.23904 2.91116 8.54556C3.39211 8.66035 3.8578 8.8312 4.29861 9.05458L4.2936 9.08452ZM11.1784 3.83373C11.254 3.95602 11.3291 4.07747 11.4011 4.19891C12.1525 4.63807 13.0891 5.10717 13.6551 5.01235C14.0929 4.75847 14.4638 4.40436 14.737 3.97934C14.2361 3.74479 13.7352 3.44536 13.1492 3.09104C12.0873 2.46724 10.8251 1.72866 9.9085 1.53903C10.2201 2.23062 10.5834 2.89789 10.9954 3.53519C11.0559 3.63555 11.1173 3.73492 11.1784 3.83373Z" fill="white"/>
</mask>
<g mask="url(#mask0)">
<rect y="0.5" width="16" height="16" fill="#A4B6C0"/>
</g>
</svg>
