<svg width="41" height="40" viewBox="0 0 41 40" fill="none" xmlns="http://www.w3.org/2000/svg">
<path d="M39.2892 5.59508V34.4046C39.2892 36.5735 37.5295 38.3332 35.3607 38.3332H28.3793V23.8302H33.3391L34.0511 18.2975H28.3793V14.7617C28.3793 13.1576 28.8212 12.069 31.1211 12.069H34.0511V7.12558C33.5437 7.0601 31.8086 6.9046 29.7788 6.9046C25.5556 6.9046 22.6583 9.48272 22.6583 14.2216V18.3056H17.6821V23.8384H22.6665V38.3332H6.55113C4.38223 38.3332 2.62256 36.5735 2.62256 34.4046V5.59508C2.62256 3.42618 4.38223 1.6665 6.55113 1.6665H35.3607C37.5295 1.6665 39.2892 3.42618 39.2892 5.59508Z" fill="#293F94"/>
</svg>
