<svg width="12" height="12" viewBox="0 0 12 12" fill="none" xmlns="http://www.w3.org/2000/svg">
<path d="M6 0.5C2.96243 0.5 0.5 2.96243 0.5 6C0.5 9.03757 2.96243 11.5 6 11.5C9.03757 11.5 11.5 9.03757 11.5 6C11.5 2.96243 9.03757 0.5 6 0.5Z" fill="white"/>
<path fill-rule="evenodd" clip-rule="evenodd" d="M5.02794 6.00009L3.4516 4.4237C3.1828 4.15489 3.1828 3.72041 3.4516 3.4516C3.72039 3.1828 4.15487 3.1828 4.42366 3.4516L6 5.02799L7.57634 3.4516C7.84513 3.1828 8.27961 3.1828 8.5484 3.4516C8.8172 3.72041 8.8172 4.15489 8.5484 4.4237L6.97206 6.00009L8.5484 7.57647C8.8172 7.84528 8.8172 8.27976 8.5484 8.54857C8.41435 8.68263 8.23836 8.75 8.06237 8.75C7.88638 8.75 7.71039 8.68263 7.57634 8.54857L6 6.97218L4.42366 8.54857C4.28961 8.68263 4.11362 8.75 3.93763 8.75C3.76164 8.75 3.58565 8.68263 3.4516 8.54857C3.1828 8.27976 3.1828 7.84528 3.4516 7.57647L5.02794 6.00009Z" fill="#34BC89"/>
</svg>
