<svg data-v-5dfe1c96="" xmlns="http://www.w3.org/2000/svg" viewBox="0 0 136.3 131.61"><title data-v-5dfe1c96="">Atlanta Meal Prep</title> <path data-v-5dfe1c96="" d="M133.88,22.86a2.42,2.42,0,0,0-2.42,2.42v3.35a2.34,2.34,0,1,1-4.68,0V17.18a2.41,2.41,0,0,0-4.73-.67,10.51,10.51,0,0,0-16.32,8.78v3.35a2.34,2.34,0,1,1-4.68,0V2.42a2.42,2.42,0,1,0-4.84,0V6.7h-7.1a2.42,2.42,0,1,0,0,4.84h7.1v17.1a2.34,2.34,0,0,1-4.68,0V25.28a10.51,10.51,0,0,0-16.32-8.78,2.41,2.41,0,0,0-4.73.67V28.63a2.34,2.34,0,1,1-4.68,0V17.18a2.41,2.41,0,0,0-4.73-.67,10.51,10.51,0,0,0-16.32,8.78v3.35a2.34,2.34,0,1,1-4.68,0V2.42a2.42,2.42,0,1,0-4.84,0V28.63a2.34,2.34,0,1,1-4.68,0V2.42a2.42,2.42,0,1,0-4.84,0V6.7h-7.1a2.42,2.42,0,0,0,0,4.84h7.1v17.1a2.34,2.34,0,1,1-4.68,0V17.18a2.41,2.41,0,0,0-4.73-.67A10.53,10.53,0,1,0,17.69,33a7.14,7.14,0,0,0,10.46,1,7.13,7.13,0,0,0,9.52,0,7.14,7.14,0,0,0,10.46-1,10.46,10.46,0,0,0,14.33,0,7.13,7.13,0,0,0,8.76,2.14,2.42,2.42,0,0,0,4.11-1.72V25.28a5.69,5.69,0,0,1,11.38,0v3.35A7.16,7.16,0,0,0,98.63,34a7.14,7.14,0,0,0,10.46-1,10.46,10.46,0,0,0,14.33,0,7.17,7.17,0,0,0,12.88-4.34V25.28A2.42,2.42,0,0,0,133.88,22.86Zm-10.82-5.69a1.3,1.3,0,1,1,2.6,0v3.42a10.58,10.58,0,0,0-2.6-3.33Zm.55,14a6,6,0,0,1-.55-2.51V18.8a9.36,9.36,0,0,1,.55,12.33Zm-7.35-15.26a9.35,9.35,0,0,1,5.69,1.93v3.75a6.8,6.8,0,0,0-12.49,3.72v3.35a6,6,0,0,1-.55,2.51,9.4,9.4,0,0,1,7.35-15.26Zm0,15.1a5.69,5.69,0,1,1,5.69-5.69A5.69,5.69,0,0,1,116.26,31ZM97.33,2.42a1.3,1.3,0,0,1,2.6,0V7.08a2.4,2.4,0,0,0-1.3-.39h-1.3Zm2.6,6.7a1.3,1.3,0,0,1-1.3,1.3h-1.3V7.81h1.3A1.3,1.3,0,0,1,99.94,9.12Zm-10.82,1.3a1.3,1.3,0,1,1,0-2.6h7.1v2.6Zm8.21,1.12h1.3a2.4,2.4,0,0,0,1.3-.39V28.63a6,6,0,0,1-1.3,3.74,6,6,0,0,1-1.3-3.74ZM71.6,17.18a1.3,1.3,0,1,1,2.6,0v.09a10.58,10.58,0,0,0-2.6,3.33Zm-9.52,0a1.3,1.3,0,1,1,2.6,0v3.42a10.58,10.58,0,0,0-2.6-3.32Zm.55,14a6,6,0,0,1-.55-2.5V18.8a9.36,9.36,0,0,1,.55,12.33ZM55.28,15.87A9.35,9.35,0,0,1,61,17.81v3.75a6.8,6.8,0,0,0-12.49,3.72v3.35a6,6,0,0,1-.55,2.51,9.4,9.4,0,0,1,7.35-15.26Zm0,15.1A5.69,5.69,0,1,1,61,25.28,5.69,5.69,0,0,1,55.28,31ZM36.36,2.42a1.3,1.3,0,0,1,2.6,0V28.63a6,6,0,0,1-1.3,3.74,6,6,0,0,1-1.3-3.74Zm-9.52,0a1.3,1.3,0,0,1,2.6,0V7.08a2.4,2.4,0,0,0-1.3-.39h-1.3Zm2.6,6.7a1.3,1.3,0,0,1-1.3,1.3h-1.3V7.81h1.3A1.3,1.3,0,0,1,29.45,9.12Zm-10.82,1.3a1.3,1.3,0,0,1,0-2.6h7.1v2.6Zm8.21,1.12h1.3a2.4,2.4,0,0,0,1.3-.39V28.63a6,6,0,0,1-1.3,3.74,6,6,0,0,1-1.3-3.74Zm-9.52,5.64a1.3,1.3,0,1,1,2.6,0v3.42a10.58,10.58,0,0,0-2.6-3.33Zm.55,14a6,6,0,0,1-.55-2.51V18.8a9.36,9.36,0,0,1,.55,12.33Zm-7.35,3.55a9.41,9.41,0,1,1,5.69-16.89v3.75a6.81,6.81,0,1,0,0,7.42A7.13,7.13,0,0,0,17.07,32,9.37,9.37,0,0,1,10.52,34.69Zm0-3.72a5.69,5.69,0,1,1,5.69-5.69A5.69,5.69,0,0,1,10.52,31Zm7.95,1.19a10.54,10.54,0,0,0,1.63-2.53,3.42,3.42,0,0,0,6,1.16,7.17,7.17,0,0,0,1.3,2.4,6,6,0,0,1-8.89-1Zm10.45,1a7.17,7.17,0,0,0,1.3-2.4,3.41,3.41,0,0,0,5.35,0,7.17,7.17,0,0,0,1.3,2.4,6,6,0,0,1-8,0Zm13.49,1.5a6,6,0,0,1-4-1.5,7.17,7.17,0,0,0,1.3-2.4,3.42,3.42,0,0,0,6-1.16,10.54,10.54,0,0,0,1.63,2.53A6.05,6.05,0,0,1,42.42,34.69Zm12.86,0A9.37,9.37,0,0,1,48.74,32,7.13,7.13,0,0,0,49.58,29,6.79,6.79,0,0,0,61,29a7.12,7.12,0,0,0,.84,3A9.37,9.37,0,0,1,55.28,34.69Zm7.95-2.53a10.55,10.55,0,0,0,1.63-2.53,3.43,3.43,0,0,0,5.63,1.53v2.23a2.39,2.39,0,0,0,.14.77,6,6,0,0,1-7.39-2Zm11,1.23a1.3,1.3,0,0,1-1.3,1.3,1.27,1.27,0,0,1-.64-.19,7.23,7.23,0,0,0,1.94-2Zm-2.57.19a1.23,1.23,0,0,1,0-.19V25.28a9.37,9.37,0,0,1,2.6-6.48v9.83A6.05,6.05,0,0,1,71.64,33.58Zm16.17-4.94V25.28a6.8,6.8,0,0,0-12.49-3.72V17.81a9.39,9.39,0,0,1,15.1,7.48v3.35a3.44,3.44,0,0,0,6.13,2.16,7.17,7.17,0,0,0,1.3,2.4,6.05,6.05,0,0,1-10-4.56Zm15.58,6.06a6,6,0,0,1-4-1.5,7.17,7.17,0,0,0,1.3-2.4,3.42,3.42,0,0,0,6-1.16,10.55,10.55,0,0,0,1.63,2.53A6.05,6.05,0,0,1,103.39,34.69Zm12.86,0A9.37,9.37,0,0,1,109.71,32a7.13,7.13,0,0,0,.84-3.05A6.79,6.79,0,0,0,122,29,7.13,7.13,0,0,0,122.8,32,9.37,9.37,0,0,1,116.26,34.69Zm18.92-6.06a6.05,6.05,0,0,1-11,3.53,10.54,10.54,0,0,0,1.63-2.53,3.45,3.45,0,0,0,6.75-1V25.28a1.3,1.3,0,0,1,2.6,0Z" fill="#293f94"></path> <path data-v-5dfe1c96="" d="M91.34,96a10.68,10.68,0,0,0-10.9.59,2.41,2.41,0,0,0-4.75.61v32a2.42,2.42,0,1,0,4.84,0V114.42A10.68,10.68,0,0,0,94.87,99a10.79,10.79,0,0,0-3.52-3m-10.81,9.47a5.86,5.86,0,0,1,5.85-5.85,5.78,5.78,0,0,1,2.71.67A5.91,5.91,0,0,1,91,101.93a5.79,5.79,0,0,1,1.2,3.56,5.85,5.85,0,0,1-11.7,0Z" fill="#293f94"></path> <path data-v-5dfe1c96="" d="M62.65,94.8A10.7,10.7,0,0,0,52,105.48v3.87a2,2,0,1,1-4,0v-5.43a5.72,5.72,0,0,0-5.63-5.72H37.14v-1A5.83,5.83,0,1,0,31.31,103h1v3.88a4.41,4.41,0,0,1-8.81,0v-1.44a10.59,10.59,0,0,0-2.2-6.5,10.67,10.67,0,0,0-8.48-4.19A10.63,10.63,0,0,0,6.87,96.6a2.41,2.41,0,0,0-4.75.61v32a2.42,2.42,0,1,0,4.84,0V114.42a10.63,10.63,0,0,0,13.72-1.73,9.23,9.23,0,0,0,16.46-5.76V103h5.15a.88.88,0,0,1,.88.88v5.69h0a6.8,6.8,0,0,0,12.29,3.76,10.64,10.64,0,0,0,7.18,2.79,2.42,2.42,0,0,0,0-4.84,5.85,5.85,0,0,1-5.32-3.43H70.92a2.42,2.42,0,0,0,2.42-2.42A10.7,10.7,0,0,0,62.65,94.8M68,103.07H57.33a5.84,5.84,0,0,1,10.64,0ZM32.31,98.21h-1a1,1,0,1,1,1-1Zm-19.5,13.13a5.85,5.85,0,1,1,0-11.7,5.78,5.78,0,0,1,2.71.67,5.91,5.91,0,0,1,1.93,1.63,5.8,5.8,0,0,1,1.2,3.56A5.86,5.86,0,0,1,12.81,111.33Z" fill="#293f94"></path> <path data-v-5dfe1c96="" d="M5.88,73V61.63a3.94,3.94,0,1,1,7.88,0V73a2.42,2.42,0,1,0,4.84,0V61.63a3.94,3.94,0,1,1,7.88,0v7.58h0a6.8,6.8,0,0,0,12.27,3.45A10.64,10.64,0,0,0,46,75.45a2.42,2.42,0,0,0,0-4.84,5.85,5.85,0,0,1-5.32-3.43H54.23a2.42,2.42,0,0,0,2.42-2.42,10.69,10.69,0,1,0-21.37,0v3.87a2,2,0,1,1-4,0v-7a8.77,8.77,0,0,0-15.14-6A8.73,8.73,0,0,0,5.5,54,2.41,2.41,0,0,0,1,55.27V73a2.42,2.42,0,1,0,4.84,0M40.64,62.35a5.84,5.84,0,0,1,10.64,0Z" fill="#293f94"></path> <path data-v-5dfe1c96="" d="M95.73,62.35a2.42,2.42,0,0,0-2.42,2.42v3.87a2,2,0,1,1-4,0V66h0V42.06a2.42,2.42,0,1,0-4.84,0V64.77h0v3.87a2,2,0,1,1-4,0V56.5a2.41,2.41,0,0,0-4.75-.61,10.57,10.57,0,0,0-1-.58,10.69,10.69,0,1,0,2.22,17.36,6.79,6.79,0,0,0,9.89,1.18,6.81,6.81,0,0,0,11.21-5.2V64.77a2.42,2.42,0,0,0-2.42-2.42m-20,2.42a5.85,5.85,0,1,1-5.85-5.85,5.78,5.78,0,0,1,2.71.67,5.92,5.92,0,0,1,1.93,1.63A5.8,5.8,0,0,1,75.73,64.77Z" fill="#293f94"></path></svg>