<svg width="24" height="24" viewBox="0 0 24 24" fill="none" xmlns="http://www.w3.org/2000/svg">
<path fill-rule="evenodd" clip-rule="evenodd" d="M16.8107 18.4393C17.3964 19.0251 17.3964 19.9749 16.8107 20.5607C16.2249 21.1464 15.2751 21.1464 14.6893 20.5607L7.18934 13.0607C6.60355 12.4749 6.60355 11.5251 7.18934 10.9393L14.6893 3.43934C15.2751 2.85355 16.2249 2.85355 16.8107 3.43934C17.3964 4.02513 17.3964 4.97487 16.8107 5.56066L10.3713 12L16.8107 18.4393Z" fill="#1A1A1A"/>
<mask id="mask0" mask-type="alpha" maskUnits="userSpaceOnUse" x="6" y="3" width="12" height="18">
<path fill-rule="evenodd" clip-rule="evenodd" d="M16.8107 18.4393C17.3964 19.0251 17.3964 19.9749 16.8107 20.5607C16.2249 21.1464 15.2751 21.1464 14.6893 20.5607L7.18934 13.0607C6.60355 12.4749 6.60355 11.5251 7.18934 10.9393L14.6893 3.43934C15.2751 2.85355 16.2249 2.85355 16.8107 3.43934C17.3964 4.02513 17.3964 4.97487 16.8107 5.56066L10.3713 12L16.8107 18.4393Z" fill="white"/>
</mask>
<g mask="url(#mask0)">
<rect x="24" width="24" height="24" transform="rotate(90 24 0)" fill="#3C3C3C"/>
</g>
</svg>
