<svg width="14" height="14" viewBox="0 0 14 14" fill="none" xmlns="http://www.w3.org/2000/svg">
<path fill-rule="evenodd" clip-rule="evenodd" d="M10.3972 12.2618C9.38632 12.2618 8.56386 11.4393 8.56386 10.4283C8.56386 10.2337 8.59473 10.0466 8.65113 9.87039C8.94934 9.99704 9.26649 10.0977 9.60258 10.1694C9.63962 10.1775 9.67644 10.1812 9.71263 10.1812C9.95443 10.1812 10.1718 10.0128 10.2243 9.76694C10.285 9.48406 10.1047 9.20565 9.82182 9.14499C9.6277 9.10348 9.44316 9.05069 9.26691 8.98769C9.57874 8.74248 9.9706 8.59498 10.3972 8.59498C11.408 8.59498 12.2307 9.41744 12.2307 10.4283C12.2307 11.4393 11.408 12.2618 10.3972 12.2618ZM11.4297 5.97489C11.0797 5.7846 10.7122 5.62411 10.3505 5.46638C9.11001 4.9251 7.93081 4.41085 7.34121 2.79998C9.441 3.02092 10.9744 4.22886 11.4297 5.97489ZM5.28826 9.46226C5.54624 9.87839 5.6267 10.3703 5.51495 10.8471C5.40299 11.3239 5.11224 11.7285 4.6959 11.9865C4.40535 12.1668 4.07203 12.2619 3.73231 12.2619C3.09184 12.2619 2.50862 11.9377 2.17168 11.3943C1.9137 10.978 1.83324 10.4863 1.94499 10.0095C2.05695 9.53271 2.34771 9.12808 2.76405 8.86989C2.93241 8.76559 3.11525 8.69067 3.30512 8.64533C3.34301 8.94886 3.41495 9.26771 3.52755 9.6053C3.60056 9.82496 3.80489 9.96395 4.02435 9.96395C4.07926 9.96395 4.13503 9.95523 4.18995 9.93692C4.46431 9.84539 4.61288 9.54889 4.52136 9.27431C4.45622 9.07849 4.40854 8.89181 4.37577 8.71195C4.7489 8.85159 5.0703 9.11063 5.28826 9.46226ZM10.3967 7.54738C9.56675 7.54738 8.81815 7.9005 8.29177 8.46393C7.91225 8.17338 7.60021 7.80557 7.36011 7.3605C6.89694 6.50206 6.71943 5.36011 6.8201 4.11088C7.64193 5.42652 8.88052 5.96823 9.93094 6.4265C10.6204 6.72726 11.2715 7.01142 11.7223 7.46224C11.8226 7.5625 11.9564 7.61571 12.0927 7.61571H12.0978C12.3858 7.61401 12.6186 7.38008 12.6186 7.09166C12.6186 7.07506 12.6178 7.05867 12.6163 7.04228C12.5916 4.17431 10.428 2.04216 7.35905 1.75098C7.41545 1.5675 7.46781 1.37849 7.51422 1.18203C7.51571 1.17649 7.51528 1.17117 7.51656 1.16585C7.52039 1.14712 7.52209 1.1286 7.52379 1.11008C7.5255 1.09391 7.5272 1.07773 7.5272 1.06177C7.5272 1.0441 7.5255 1.02686 7.52358 1.0094C7.52209 0.992589 7.5206 0.975986 7.51741 0.959809C7.514 0.943207 7.50911 0.927456 7.50421 0.911492C7.49932 0.895315 7.49485 0.879138 7.48846 0.863387C7.48208 0.847849 7.4742 0.833375 7.46632 0.818475C7.45845 0.803788 7.45121 0.789102 7.44206 0.775266C7.43269 0.761005 7.42184 0.747808 7.4112 0.734611C7.40077 0.721627 7.39076 0.708643 7.37927 0.696724C7.36756 0.684804 7.35458 0.674161 7.34159 0.663093C7.3284 0.651812 7.3152 0.640743 7.30094 0.630739C7.28753 0.621587 7.27305 0.613924 7.25879 0.605836C7.24262 0.596896 7.22644 0.587956 7.2092 0.580506C7.20388 0.578378 7.19962 0.575185 7.1943 0.573056C7.18281 0.568586 7.17089 0.566884 7.15918 0.563265C7.14768 0.559647 7.13725 0.554538 7.12533 0.551558C7.1198 0.550281 7.11448 0.550494 7.10916 0.54943C7.09043 0.545598 7.07212 0.543896 7.05339 0.54198C7.03721 0.54049 7.02104 0.538574 7.00486 0.538574C6.98741 0.538574 6.97038 0.54049 6.95292 0.542193C6.93611 0.543896 6.91929 0.545385 6.9029 0.548578C6.88651 0.551771 6.87098 0.556667 6.85523 0.561562C6.83884 0.566458 6.82245 0.571141 6.80669 0.577526C6.79137 0.583912 6.7769 0.591787 6.762 0.59945C6.74731 0.607326 6.73241 0.614775 6.71836 0.623928C6.7041 0.633294 6.69112 0.643936 6.67792 0.654579C6.66493 0.665009 6.65195 0.675013 6.64003 0.68672C6.6279 0.698426 6.61747 0.71141 6.6064 0.724182C6.59512 0.737591 6.58405 0.750575 6.57405 0.765049C6.56489 0.778459 6.55723 0.79272 6.54914 0.807194C6.5402 0.823371 6.53126 0.839548 6.52381 0.856789C6.52169 0.86211 6.51828 0.866367 6.51636 0.871688C6.34715 1.30718 6.20794 1.74289 6.09385 2.17541C5.71561 3.08684 5.21647 3.83651 4.7284 4.56745C4.08708 5.52826 3.46938 6.45502 3.31144 7.57782C2.92341 7.63486 2.549 7.77066 2.21163 7.97969C1.55754 8.38517 1.10054 9.02117 0.92494 9.7702C0.749124 10.5194 0.875558 11.2923 1.28104 11.9464C1.81019 12.8002 2.72652 13.3097 3.73204 13.3097C4.26694 13.3097 4.79119 13.1601 5.24776 12.877C5.90186 12.4717 6.35885 11.8357 6.53467 11.0865C6.71048 10.3372 6.58384 9.56437 6.17835 8.91049C5.76393 8.24171 5.11154 7.78556 4.36549 7.61869C4.51172 6.77941 5.00383 6.04209 5.59982 5.14917C5.64707 5.07808 5.69497 5.00656 5.74307 4.93419C5.76414 6.03081 5.99381 7.03441 6.43803 7.85793C6.76285 8.45988 7.19728 8.96008 7.72643 9.34833C7.59084 9.68208 7.51571 10.0465 7.51571 10.4283C7.51571 12.0171 8.80793 13.3095 10.3967 13.3095C11.9854 13.3095 13.2778 12.0171 13.2778 10.4283C13.2778 8.83982 11.9854 7.54738 10.3967 7.54738Z" fill="#293F94"/>
</svg>
