<svg width="16" height="16" viewBox="0 0 16 16" fill="none" xmlns="http://www.w3.org/2000/svg">
<path fill-rule="evenodd" clip-rule="evenodd" d="M0.5 8C0.5 3.86039 3.86033 0.5 7.99987 0.5C12.1638 0.5 15.5241 3.86039 15.4997 8C15.4997 12.1396 12.1394 15.5 7.99987 15.5C3.86033 15.5 0.5 12.1396 0.5 8ZM7.99986 8.80348H10.8245C11.2871 8.80348 11.6524 8.46257 11.6524 7.99991C11.6524 7.53725 11.2871 7.17199 10.8245 7.17199H8.82776V4.05511C8.82776 3.59244 8.46251 3.22718 7.99986 3.22718C7.5372 3.22718 7.17195 3.59244 7.17195 4.05511V7.97556C7.17195 8.43822 7.5372 8.80348 7.99986 8.80348Z" fill="#293F94"/>
</svg>
