<svg width="18" height="18" viewBox="0 0 18 18" fill="none" xmlns="http://www.w3.org/2000/svg">
<path fill-rule="evenodd" clip-rule="evenodd" d="M12.25 0.75C13.0439 0.75 13.6875 1.39359 13.6875 2.1875V3.625C16.0692 3.625 18 5.55577 18 7.9375V13.6875C18 16.0692 16.0692 18 13.6875 18H5.0625C2.68077 18 0.75 16.0692 0.75 13.6875V7.9375C0.75 5.55577 2.68077 3.625 5.0625 3.625V2.1875C5.0625 1.39359 5.70609 0.75 6.5 0.75C7.29391 0.75 7.9375 1.39359 7.9375 2.1875V3.625H10.8125V2.1875C10.8125 1.39359 11.4561 0.75 12.25 0.75ZM3.62496 12.2501V13.6876C3.62496 14.4815 4.26855 15.1251 5.06246 15.1251H7.93746V12.2501H3.62496ZM15.125 12.2501H10.8125V15.1251H13.6875C14.4815 15.1251 15.125 14.4815 15.125 13.6876V12.2501ZM13.6875 6.49992H10.8125V9.37492H15.125V7.93742C15.125 7.14351 14.4815 6.49992 13.6875 6.49992ZM3.62496 9.37492H7.93746V6.49992H5.06246C4.26855 6.49992 3.62496 7.14351 3.62496 7.93742V9.37492Z" fill="#293F94"/>
</svg>
