<svg width="18" height="18" viewBox="0 0 18 18" fill="none" xmlns="http://www.w3.org/2000/svg">
    <path fill-rule="evenodd" clip-rule="evenodd" d="M9 0.75C13.5563 0.75 17.25 4.44365 17.25 9C17.25 13.5563 13.5563 17.25 9 17.25C4.44365 17.25 0.75 13.5563 0.75 9C0.75 4.44365 4.44365 0.75 9 0.75ZM9.00004 3.50016C8.24065 3.50016 7.62504 4.11577 7.62504 4.87516V9.00016C7.62504 9.36484 7.76991 9.71457 8.02777 9.97244L10.7778 12.7224C11.3147 13.2594 12.1853 13.2594 12.7223 12.7224C13.2593 12.1855 13.2593 11.3149 12.7223 10.7779L10.375 8.43062V4.87516C10.375 4.11577 9.75943 3.50016 9.00004 3.50016Z" fill="#3C3C3C"/>
</svg>
