<svg width="15" height="18" viewBox="0 0 15 18" fill="none" xmlns="http://www.w3.org/2000/svg">
    <path d="M13.3125 12.0876L9.85474 9.51698C11.0073 8.61726 11.7757 7.33196 11.7757 5.78959V4.76135C11.7757 2.31926 9.98281 0.134244 7.5496 0.00571371C4.98834 -0.122817 2.81126 1.93367 2.81126 4.50429V5.78959C2.81126 7.33196 3.57964 8.61726 4.73221 9.51698L1.27451 12.2161C0.63419 12.7302 0.25 13.5014 0.25 14.2726V16.7147C0.25 17.4859 0.762253 18 1.53063 18H13.0563C13.8247 18 14.337 17.4859 14.337 16.7147V14.1441C14.337 13.3729 13.9528 12.6017 13.3125 12.0876Z" fill="#3C3C3C"/>
</svg>
