<svg width="18" height="18" viewBox="0 0 18 18" fill="none" xmlns="http://www.w3.org/2000/svg">
    <path fill-rule="evenodd" clip-rule="evenodd" d="M3.32557 13.4996L2.57557 8.78032C1.71682 8.47799 0.992699 7.88127 0.53145 7.09584C0.0702007 6.31041 -0.0984061 5.38695 0.0554924 4.48903C0.209391 3.59111 0.675863 2.77667 1.37229 2.18997C2.06871 1.60326 2.95015 1.28215 3.86048 1.28351C4.43397 1.28159 5.00052 1.40905 5.51801 1.65642C5.93976 1.13882 6.47132 0.721639 7.07415 0.43514C7.67698 0.14864 8.33597 0 9.00333 0C9.67069 0 10.3297 0.14864 10.9325 0.43514C11.5353 0.721639 12.0669 1.13882 12.4886 1.65642C13.0042 1.40999 13.5684 1.28255 14.1398 1.28351C15.0501 1.28215 15.9315 1.60326 16.6279 2.18997C17.3244 2.77667 17.7908 3.59111 17.9447 4.48903C18.0986 5.38695 17.93 6.31041 17.4688 7.09584C17.0075 7.88127 16.2834 8.47799 15.4247 8.78032L14.6747 13.4996H3.32557ZM3.3252 17.3572V14.7854H14.6743V17.3572C14.6743 17.5277 14.6066 17.6913 14.4861 17.8118C14.3656 17.9324 14.2022 18.0002 14.0318 18.0002H3.96765C3.79726 18.0002 3.63385 17.9324 3.51337 17.8118C3.39288 17.6913 3.3252 17.5277 3.3252 17.3572Z" fill="#3C3C3C"/>
</svg>
