<svg width="27" height="27" viewBox="0 0 27 27" fill="none" xmlns="http://www.w3.org/2000/svg">
<path fill-rule="evenodd" clip-rule="evenodd" d="M13.3327 6.66669C12.4122 6.66669 11.666 7.41288 11.666 8.33335V11.6667H8.33268C7.41221 11.6667 6.66602 12.4129 6.66602 13.3334C6.66602 14.2538 7.41221 15 8.33268 15H11.666V18.3334C11.666 19.2538 12.4122 20 13.3327 20C14.2532 20 14.9993 19.2538 14.9993 18.3334V15H18.3327C19.2532 15 19.9993 14.2538 19.9993 13.3334C19.9993 12.4129 19.2532 11.6667 18.3327 11.6667H14.9993V8.33335C14.9993 7.41288 14.2532 6.66669 13.3327 6.66669Z" fill="white"/>
<mask id="mask0" mask-type="alpha" maskUnits="userSpaceOnUse" x="6" y="6" width="14" height="14">
<path fill-rule="evenodd" clip-rule="evenodd" d="M13.3327 6.66669C12.4122 6.66669 11.666 7.41288 11.666 8.33335V11.6667H8.33268C7.41221 11.6667 6.66602 12.4129 6.66602 13.3334C6.66602 14.2538 7.41221 15 8.33268 15H11.666V18.3334C11.666 19.2538 12.4122 20 13.3327 20C14.2532 20 14.9993 19.2538 14.9993 18.3334V15H18.3327C19.2532 15 19.9993 14.2538 19.9993 13.3334C19.9993 12.4129 19.2532 11.6667 18.3327 11.6667H14.9993V8.33335C14.9993 7.41288 14.2532 6.66669 13.3327 6.66669Z" fill="white"/>
</mask>
<g mask="url(#mask0)">
<rect width="26.6667" height="26.6667" fill="white"/>
</g>
</svg>
