<svg width="18" height="18" viewBox="0 0 18 18" fill="none" xmlns="http://www.w3.org/2000/svg">
    <path fill-rule="evenodd" clip-rule="evenodd" d="M9.00004 14.5001C8.24065 14.5001 7.62504 13.8845 7.62504 13.1251V9.00008C7.62504 8.24069 8.24065 7.62508 9.00004 7.62508C9.75943 7.62508 10.375 8.24069 10.375 9.00008V13.1251C10.375 13.8845 9.75943 14.5001 9.00004 14.5001ZM9.00004 6.25008C8.24065 6.25008 7.62504 5.63447 7.62504 4.87508C7.62504 4.11569 8.24065 3.50008 9.00004 3.50008C9.75943 3.50008 10.375 4.11569 10.375 4.87508C10.375 5.63447 9.75943 6.25008 9.00004 6.25008ZM9 17.25C4.44325 17.25 0.75 13.5554 0.75 9C0.75 4.44325 4.44325 0.75 9 0.75C13.5554 0.75 17.25 4.44325 17.25 9C17.25 13.5554 13.5554 17.25 9 17.25Z" fill="#3C3C3C"/>
</svg>
