<svg width="18" height="18" viewBox="0 0 18 18" fill="none" xmlns="http://www.w3.org/2000/svg">
    <path fill-rule="evenodd" clip-rule="evenodd" d="M5.9059 0.751134V6.93821C5.9059 7.44925 6.4437 7.78163 6.90079 7.55308L9.34316 6.3319L11.7855 7.55308C12.2426 7.78163 12.7804 7.44925 12.7804 6.93821V0.751134L16.5603 0.75C17.3181 0.75 17.9363 1.36658 17.9363 2.12604V15.8728C17.9363 16.6306 17.3197 17.2489 16.5603 17.2489L2.12604 17.25C1.36825 17.25 0.75 16.6334 0.75 15.874V2.12717C0.75 1.36938 1.36658 0.751134 2.12604 0.751134H5.9059ZM13.5827 12.0046V14.7993C13.5827 15.014 13.7477 15.1879 13.9585 15.1879H14.6962C14.9038 15.1879 15.0721 15.0141 15.0721 14.7993V12.0046L15.3988 12.3464C15.5445 12.4988 15.7793 12.5003 15.9283 12.3444L16.45 11.7986C16.5968 11.6451 16.5993 11.3987 16.453 11.2456L14.854 9.57279C14.5631 9.26852 14.0916 9.26852 13.8008 9.57279L12.2018 11.2456C12.0566 11.3975 12.0557 11.6427 12.2048 11.7986L12.7264 12.3444C12.8732 12.4979 13.1107 12.4984 13.256 12.3464L13.5827 12.0046ZM11.4056 0.751302V5.82606L9.65065 4.9486C9.45711 4.85183 9.22931 4.85183 9.03578 4.9486L7.28086 5.82606V0.751302H11.4056Z" fill="#3C3C3C"/>
</svg>
