<svg width="18" height="19" viewBox="0 0 18 19" fill="none" xmlns="http://www.w3.org/2000/svg">
    <path fill-rule="evenodd" clip-rule="evenodd" d="M9.60114 2.00847C9.36939 2.31941 9.17382 2.58182 8.99934 2.71582C8.82625 2.58395 8.66428 2.3389 8.47198 2.04795C7.92007 1.21296 7.11835 0 5.08701 0C3.4464 0 2.65033 1.25781 2.88332 1.89569C3.17456 2.67937 3.99003 3.09854 5.32973 3.11677C7.74701 3.13499 10.1643 3.13499 12.5816 3.11677C13.9504 3.09854 14.795 2.67937 15.1154 1.93214C15.3775 1.27604 14.4783 0 12.5218 0C11.0981 0 10.2204 1.17754 9.60114 2.00847ZM7.86345 8.4539V5.10465C7.07342 5.10465 6.30348 5.09796 5.54682 5.09137H5.54681H5.5468C4.07197 5.07855 2.64759 5.06616 1.2232 5.10465C0.116496 5.13378 0 5.94925 0 6.56085C0 8.4765 0.437515 8.47196 1.88988 8.45685C2.02731 8.45543 2.17382 8.4539 2.32991 8.4539H4.25209H7.86345ZM7.86347 10.9548V18.4433C7.36653 18.4433 6.87141 18.447 6.37814 18.4507C4.90561 18.4616 3.44941 18.4724 2.00956 18.3851C1.16497 18.3851 1.01935 17.8317 1.01935 17.2493C1.00041 15.7336 1.00611 14.549 1.01241 13.2408C1.0158 12.538 1.01935 11.7995 1.01935 10.9548H7.86347ZM10.3643 18.5016V10.9548H17.1793V17.2784C17.1793 18.123 16.5095 18.5016 15.7231 18.5016H10.3643ZM10.3643 8.45376V5.10451C10.9496 5.10451 11.5311 5.10267 12.1099 5.10084C13.8354 5.09539 15.5365 5.09001 17.2376 5.13363C18.0608 5.18851 18.005 6.17417 17.9957 6.33663C17.9952 6.3466 17.9948 6.35347 17.9948 6.35684C17.9948 8.50933 17.7766 8.50381 16.2118 8.46422H16.2118C16.0616 8.46042 15.8991 8.45631 15.7231 8.45376H10.3643Z" fill="#3C3C3C"/>
</svg>
