<svg width="17" height="16" viewBox="0 0 17 16" fill="none" xmlns="http://www.w3.org/2000/svg">
<path fill-rule="evenodd" clip-rule="evenodd" d="M0.00379944 1.13867C0.0436745 0.747051 0.442419 0.433759 0.841166 0.512082L3.83176 0.942859C4.15075 0.98202 4.39 1.21699 4.46975 1.53028L4.94824 3.56668H16.0457C16.2052 3.56668 16.3249 3.645 16.4046 3.76249C16.4844 3.87997 16.5242 4.07578 16.4844 4.19326L15.2881 8.96003C15.2084 9.15584 15.009 9.31248 14.8096 9.31248L6.66285 10.3698L6.78247 10.8789H14.8894C15.2881 10.8789 15.647 11.2314 15.647 11.623C15.647 12.0146 15.328 12.3671 14.8894 12.3671H6.14448C5.78561 12.3671 5.46661 12.1321 5.38686 11.7797L3.07414 2.31351L0.601917 1.96106C0.243046 1.9219 -0.0360756 1.53028 0.00379944 1.13867ZM12.8558 15.5C12.1511 15.5 11.5798 14.9389 11.5798 14.2468C11.5798 13.5547 12.1511 12.9937 12.8558 12.9937C13.5605 12.9937 14.1318 13.5547 14.1318 14.2468C14.1318 14.9389 13.5605 15.5 12.8558 15.5ZM6.50336 14.2468C6.50336 14.9389 7.07464 15.5 7.77935 15.5C8.48405 15.5 9.05533 14.9389 9.05533 14.2468C9.05533 13.5547 8.48405 12.9937 7.77935 12.9937C7.07464 12.9937 6.50336 13.5547 6.50336 14.2468Z" fill="white"/>
</svg>
