<svg width="18" height="18" viewBox="0 0 18 18" fill="none" xmlns="http://www.w3.org/2000/svg">
    <path fill-rule="evenodd" clip-rule="evenodd" d="M1.12995 3.86388L7.18125 0.848084C7.61809 0.576233 8.18835 0.900126 8.18835 1.44288V2.34873H12.6897C13.0575 2.34873 13.3555 2.65884 13.3555 3.04119V5.927C13.3555 6.83785 12.0239 6.83785 12.0239 5.927V3.73365H8.18835V14.1971H12.0239V12.0037C12.0239 11.0931 13.3555 11.0931 13.3555 12.0037V14.8895C13.3555 15.2721 13.0575 15.582 12.6897 15.582H8.18835L8.18584 16.4881C8.1863 16.9888 7.68023 17.331 7.23654 17.1102L1.18524 14.0944C0.931178 13.9968 0.75 13.7425 0.75 13.4447L0.752742 4.48624C0.75297 4.22888 0.892109 3.98222 1.12995 3.86388ZM10.2073 8.08795C9.09921 8.08795 9.09921 9.84049 10.2073 9.84049H15.1242L14.1699 10.8328C13.3867 11.6474 14.5777 12.8865 15.3612 12.0719L17.7485 9.5886C18.0702 9.25401 18.0971 8.70247 17.7485 8.33984L15.3612 5.85658C14.5777 5.04198 13.3867 6.281 14.1699 7.0956L15.1242 8.08795H10.2073Z" fill="#3C3C3C"/>
</svg>
