<svg width="41" height="40" viewBox="0 0 41 40" fill="none" xmlns="http://www.w3.org/2000/svg">
<path fill-rule="evenodd" clip-rule="evenodd" d="M35.3611 38.3332H6.55162C4.38272 38.3332 2.62305 36.5735 2.62305 34.4046V5.59508C2.62305 3.42618 4.38272 1.6665 6.55162 1.6665H35.3611C37.53 1.6665 39.2897 3.42618 39.2897 5.59508V34.4046C39.2897 36.5735 37.53 38.3332 35.3611 38.3332ZM21.8709 20.0819C20.2593 18.4704 17.3154 18.4704 15.7038 20.0819L13.3114 22.4743C11.6999 24.0859 11.6999 26.6987 13.3114 28.3102C14.923 29.9217 17.5358 29.9217 19.1473 28.3102L19.1607 28.2969L19.1804 28.2779L19.6163 27.7645C20.3348 27.0821 21.4705 27.1114 22.1529 27.8299C22.8354 28.5484 22.8061 29.6841 22.0876 30.3666L21.6674 30.8651C18.653 33.8607 13.7811 33.8549 10.7739 30.8477C7.76092 27.8348 7.76092 22.9498 10.7739 19.9368L13.1663 17.5444C16.1793 14.5314 21.3954 14.5314 24.4084 17.5444C24.8506 17.9866 24.9435 18.15 25.1271 18.4729C25.1621 18.5344 25.2003 18.6017 25.2449 18.6778C25.7459 19.5328 25.4589 20.632 24.6039 21.133C23.7489 21.634 22.6496 21.347 22.1487 20.492C22.0637 20.3469 22.0333 20.2831 22.0166 20.248C22.0087 20.2314 22.0039 20.2212 21.9977 20.2118C21.988 20.197 21.975 20.1843 21.9414 20.1515C21.9241 20.1346 21.9014 20.1125 21.8709 20.0819ZM22.4513 14.3553L23.631 13.1163C25.2436 11.5189 27.8459 11.5236 29.4527 13.1304C31.0642 14.742 31.0642 17.3548 29.4527 18.9663L27.0603 21.3587C26.1921 22.2269 25.0047 22.785 23.8496 22.9063C22.7845 23.018 21.8443 22.757 21.1524 22.1473C21.1409 22.1202 21.1292 22.0939 21.1174 22.0684C21.0709 21.9677 21.0192 21.8717 20.9658 21.7805C20.4648 20.9255 19.3656 20.6385 18.5106 21.1395C17.6989 21.615 17.3991 22.6298 17.7994 23.4629L18.4759 24.5544C20.0857 26.1643 22.2263 26.6849 24.2241 26.4753C26.2051 26.2674 28.1537 25.3403 29.5978 23.8962L31.9902 21.5038C35.0032 18.4909 35.0032 13.6059 31.9902 10.5929C28.9772 7.57993 24.0922 7.57992 21.0793 10.5929C21.0689 10.6033 21.0587 10.6137 21.0486 10.6244L19.8524 11.8807C19.169 12.5984 19.1968 13.7341 19.9145 14.4174C20.6322 15.1008 21.768 15.0729 22.4513 14.3553Z" fill="#293F94"/>
</svg>
