<svg width="24" height="24" viewBox="0 0 24 24" fill="none" xmlns="http://www.w3.org/2000/svg">
<path fill-rule="evenodd" clip-rule="evenodd" d="M12.0069 3.75C7.87076 3.75 4.5 7.08675 4.5 11.1904C4.5 16.875 10.9425 19.8693 12 21C13.2438 19.6873 19.5 16.875 19.5 11.1904C19.5 7.08714 16.1349 3.75 12.0069 3.75ZM12.0069 7.68169C13.9526 7.68169 15.5225 9.25237 15.5225 11.2042C15.5225 13.1561 13.9526 14.7337 12.0069 14.7337C10.0515 14.7337 8.48438 13.1561 8.48438 11.2042C8.48438 9.25237 10.0515 7.68169 12.0069 7.68169Z" fill="black"/>
<mask id="mask0" mask-type="alpha" maskUnits="userSpaceOnUse" x="4" y="3" width="16" height="18">
<path fill-rule="evenodd" clip-rule="evenodd" d="M12.0069 3.75C7.87076 3.75 4.5 7.08675 4.5 11.1904C4.5 16.875 10.9425 19.8693 12 21C13.2438 19.6873 19.5 16.875 19.5 11.1904C19.5 7.08714 16.1349 3.75 12.0069 3.75ZM12.0069 7.68169C13.9526 7.68169 15.5225 9.25237 15.5225 11.2042C15.5225 13.1561 13.9526 14.7337 12.0069 14.7337C10.0515 14.7337 8.48438 13.1561 8.48438 11.2042C8.48438 9.25237 10.0515 7.68169 12.0069 7.68169Z" fill="white"/>
</mask>
<g mask="url(#mask0)">
<rect width="24" height="24" fill="#293F94"/>
</g>
</svg>
