<svg width="186" height="28" viewBox="0 0 186 28" fill="none" xmlns="http://www.w3.org/2000/svg">
<path fill-rule="evenodd" clip-rule="evenodd" d="M5.62038 10.4444C3.94577 10.4444 2.58283 11.804 2.58283 13.4759C2.58283 15.1471 3.94577 16.5073 5.62038 16.5073C7.2956 16.5073 8.65793 15.1471 8.65793 13.4759C8.65793 11.804 7.2956 10.4444 5.62038 10.4444ZM5.62038 17.1021C3.61705 17.1021 1.98688 15.4752 1.98688 13.4759C1.98688 11.476 3.61705 9.84916 5.62038 9.84916C7.62431 9.84916 9.25387 11.476 9.25387 13.4759C9.25387 15.4752 7.62431 17.1021 5.62038 17.1021ZM5.62038 8.46092C2.85006 8.46092 0.595942 10.7111 0.595942 13.4758C0.595942 16.2412 2.85006 18.4901 5.62038 18.4901C8.3913 18.4901 10.6448 16.2412 10.6448 13.4758C10.6448 10.7111 8.3913 8.46092 5.62038 8.46092ZM5.62038 19.0849C2.52135 19.0849 0 16.5686 0 13.4759C0 10.3831 2.52135 7.86621 5.62038 7.86621C8.72002 7.86621 11.2408 10.3831 11.2408 13.4759C11.2408 16.5686 8.72002 19.0849 5.62038 19.0849Z" fill="#293F94"/>
<path fill-rule="evenodd" clip-rule="evenodd" d="M29.5227 10.4444C27.8481 10.4444 26.4852 11.804 26.4852 13.4759C26.4852 15.1471 27.8481 16.5073 29.5227 16.5073C31.1979 16.5073 32.5603 15.1471 32.5603 13.4759C32.5603 11.804 31.1979 10.4444 29.5227 10.4444ZM29.5227 17.1021C27.5188 17.1021 25.8892 15.4752 25.8892 13.4759C25.8892 11.476 27.5188 9.84916 29.5227 9.84916C31.5266 9.84916 33.1562 11.476 33.1562 13.4759C33.1562 15.4752 31.5266 17.1021 29.5227 17.1021ZM29.5227 8.46092C26.7524 8.46092 24.4983 10.7111 24.4983 13.4758C24.4983 16.2412 26.7524 18.4901 29.5227 18.4901C32.293 18.4901 34.5472 16.2412 34.5472 13.4758C34.5472 10.7111 32.293 8.46092 29.5227 8.46092ZM29.5227 19.0849C26.4237 19.0849 23.9023 16.5686 23.9023 13.4759C23.9023 10.3831 26.4237 7.86621 29.5227 7.86621C32.6224 7.86621 35.1431 10.3831 35.1431 13.4759C35.1431 16.5686 32.6224 19.0849 29.5227 19.0849Z" fill="#293F94"/>
<path fill-rule="evenodd" clip-rule="evenodd" d="M62.0833 10.4444C60.4087 10.4444 59.0457 11.804 59.0457 13.4759C59.0457 15.1471 60.4087 16.5073 62.0833 16.5073C63.7585 16.5073 65.1208 15.1471 65.1208 13.4759C65.1208 11.804 63.7585 10.4444 62.0833 10.4444ZM62.0833 17.1021C60.0793 17.1021 58.4498 15.4752 58.4498 13.4759C58.4498 11.476 60.0793 9.84916 62.0833 9.84916C64.0872 9.84916 65.7168 11.476 65.7168 13.4759C65.7168 15.4752 64.0872 17.1021 62.0833 17.1021ZM62.0833 8.46092C59.313 8.46092 57.0588 10.7111 57.0588 13.4758C57.0588 16.2412 59.313 18.4901 62.0833 18.4901C64.8536 18.4901 67.1077 16.2412 67.1077 13.4758C67.1077 10.7111 64.8536 8.46092 62.0833 8.46092ZM62.0833 19.0849C58.9842 19.0849 56.4629 16.5686 56.4629 13.4759C56.4629 10.3831 58.9842 7.86621 62.0833 7.86621C65.1829 7.86621 67.7036 10.3831 67.7036 13.4759C67.7036 16.5686 65.1829 19.0849 62.0833 19.0849Z" fill="#293F94"/>
<path fill-rule="evenodd" clip-rule="evenodd" d="M12.4908 19.0854C10.3779 19.0854 8.6582 17.3698 8.6582 15.2612V9.15581C8.6582 8.44504 9.23771 7.8667 9.94992 7.8667C10.6615 7.8667 11.241 8.44504 11.241 9.15581V15.2612C11.241 15.9483 11.8017 16.5078 12.4908 16.5078C13.1798 16.5078 13.7399 15.9483 13.7399 15.2612H14.3358C14.3358 16.2763 13.5079 17.1025 12.4908 17.1025C11.473 17.1025 10.6451 16.2763 10.6451 15.2612V9.15581C10.6451 8.77309 10.3328 8.46144 9.94992 8.46144C9.56642 8.46144 9.25415 8.77309 9.25415 9.15581V15.2612C9.25415 17.0418 10.706 18.4907 12.4908 18.4907C14.2749 18.4907 15.7267 17.0418 15.7267 15.2612H16.3227C16.3227 17.3698 14.6036 19.0854 12.4908 19.0854Z" fill="#293F94"/>
<path fill-rule="evenodd" clip-rule="evenodd" d="M36.3931 19.0854C34.2802 19.0854 32.5605 17.3698 32.5605 15.2612V9.15581C32.5605 8.44504 33.1401 7.8667 33.8523 7.8667C34.5639 7.8667 35.1434 8.44504 35.1434 9.15581V15.2612C35.1434 15.9483 35.704 16.5078 36.3931 16.5078C37.0822 16.5078 37.6422 15.9483 37.6422 15.2612H38.2381C38.2381 16.2763 37.4103 17.1025 36.3931 17.1025C35.3753 17.1025 34.5474 16.2763 34.5474 15.2612V9.15581C34.5474 8.77309 34.2352 8.46144 33.8523 8.46144C33.4688 8.46144 33.1565 8.77309 33.1565 9.15581V15.2612C33.1565 17.0418 34.6083 18.4907 36.3931 18.4907C38.1773 18.4907 39.6291 17.0418 39.6291 15.2612H40.225C40.225 17.3698 38.506 19.0854 36.3931 19.0854Z" fill="#293F94"/>
<path fill-rule="evenodd" clip-rule="evenodd" d="M17.5728 19.0855C15.4599 19.0855 13.7402 17.3699 13.7402 15.2613V1.29058C13.7402 0.579805 14.3204 0.00146484 15.032 0.00146484C15.7442 0.00146484 16.3231 0.579805 16.3231 1.29058V15.2613C16.3231 15.9483 16.8837 16.5078 17.5728 16.5078C18.2619 16.5078 18.8225 15.9483 18.8225 15.2613H19.4184C19.4184 16.2764 18.5906 17.1026 17.5728 17.1026C16.5556 17.1026 15.7271 16.2764 15.7271 15.2613V1.29058C15.7271 0.907855 15.4155 0.596207 15.032 0.596207C14.6485 0.596207 14.3362 0.907855 14.3362 1.29058V15.2613C14.3362 17.0418 15.788 18.4907 17.5728 18.4907C19.3576 18.4907 20.8094 17.0418 20.8094 15.2613H21.4053C21.4053 17.3699 19.6857 19.0855 17.5728 19.0855Z" fill="#293F94"/>
<path fill-rule="evenodd" clip-rule="evenodd" d="M22.6529 19.0855C20.54 19.0855 18.8203 17.3699 18.8203 15.2613V1.29058C18.8203 0.579805 19.3998 0.00146484 20.112 0.00146484C20.8242 0.00146484 21.4031 0.579805 21.4031 1.29058V15.2613C21.4031 15.9483 21.9638 16.5078 22.6529 16.5078C23.3419 16.5078 23.902 15.9483 23.902 15.2613V13.4764H24.4985V15.2613C24.4985 16.2764 23.67 17.1026 22.6529 17.1026C21.6351 17.1026 20.8072 16.2764 20.8072 15.2613V1.29058C20.8072 0.907855 20.4955 0.596207 20.112 0.596207C19.7285 0.596207 19.4163 0.907855 19.4163 1.29058V15.2613C19.4163 17.0418 20.8681 18.4907 22.6529 18.4907C24.4376 18.4907 25.8895 17.0418 25.8895 15.2613V13.4764H26.4854V15.2613C26.4854 17.3699 24.7658 19.0855 22.6529 19.0855Z" fill="#293F94"/>
<path fill-rule="evenodd" clip-rule="evenodd" d="M9.94931 4.16551C9.56581 4.16551 9.25414 4.47655 9.25414 4.85928C9.25414 5.242 9.56581 5.55365 9.94931 5.55365H15.031C15.4145 5.55365 15.7261 5.242 15.7261 4.85928C15.7261 4.47655 15.4145 4.16551 15.031 4.16551H9.94931ZM15.031 6.14842H9.94931C9.2371 6.14842 8.6582 5.57008 8.6582 4.85931C8.6582 4.14853 9.2371 3.5708 9.94931 3.5708H15.031C15.7432 3.5708 16.3221 4.14853 16.3221 4.85931C16.3221 5.57008 15.7432 6.14842 15.031 6.14842Z" fill="#293F94"/>
<path fill-rule="evenodd" clip-rule="evenodd" d="M50.1331 19.0854C48.0202 19.0854 46.3005 17.3698 46.3005 15.2612V13.4764C46.3005 11.8045 44.9382 10.4449 43.2636 10.4449C41.5883 10.4449 40.2254 11.8045 40.2254 13.4764V17.7963C40.2254 18.5077 39.6465 19.0854 38.9343 19.0854C38.2221 19.0854 37.6426 18.5077 37.6426 17.7963V13.4764C37.6426 10.3836 40.1639 7.8667 43.2636 7.8667C46.3626 7.8667 48.8833 10.3836 48.8833 13.4764V15.2612C48.8833 15.9483 49.444 16.5078 50.1331 16.5078C50.8221 16.5078 51.3828 15.9483 51.3828 15.2612H51.9787C51.9787 16.2763 51.1502 17.1025 50.1331 17.1025C49.1159 17.1025 48.2874 16.2763 48.2874 15.2612V13.4764C48.2874 10.7116 46.0339 8.46144 43.2636 8.46144C40.4932 8.46144 38.2385 10.7116 38.2385 13.4764V17.7963C38.2385 18.179 38.5508 18.4907 38.9343 18.4907C39.3178 18.4907 39.6295 18.179 39.6295 17.7963V13.4764C39.6295 11.4765 41.2596 9.84958 43.2636 9.84958C45.2669 9.84958 46.8964 11.4765 46.8964 13.4764V15.2612C46.8964 17.0418 48.3483 18.4907 50.1331 18.4907C51.9178 18.4907 53.3697 17.0418 53.3697 15.2612H53.9656C53.9656 17.3698 52.2459 19.0854 50.1331 19.0854Z" fill="#293F94"/>
<path fill-rule="evenodd" clip-rule="evenodd" d="M55.2154 19.0855C53.1025 19.0855 51.3828 17.3699 51.3828 15.2613V1.29058C51.3828 0.579805 51.9623 0.00146484 52.6745 0.00146484C53.3867 0.00146484 53.9663 0.579805 53.9663 1.29058V15.2613C53.9663 15.9483 54.5263 16.5078 55.2154 16.5078C55.9044 16.5078 56.4651 15.9483 56.4651 15.2613V13.4764H57.061V15.2613C57.061 16.2764 56.2325 17.1026 55.2154 17.1026C54.1976 17.1026 53.3697 16.2764 53.3697 15.2613V1.29058C53.3697 0.907855 53.0574 0.596207 52.6745 0.596207C52.291 0.596207 51.9788 0.907855 51.9788 1.29058V15.2613C51.9788 17.0418 53.4306 18.4907 55.2154 18.4907C57.0001 18.4907 58.452 17.0418 58.452 15.2613V13.4764H59.0479V15.2613C59.0479 17.3699 57.3283 19.0855 55.2154 19.0855Z" fill="#293F94"/>
<path fill-rule="evenodd" clip-rule="evenodd" d="M47.5925 4.16551C47.209 4.16551 46.8967 4.47655 46.8967 4.85928C46.8967 5.242 47.209 5.55365 47.5925 5.55365H52.6736C53.0571 5.55365 53.3693 5.242 53.3693 4.85928C53.3693 4.47655 53.0571 4.16551 52.6736 4.16551H47.5925ZM52.6735 6.14842H47.5925C46.8803 6.14842 46.3008 5.57008 46.3008 4.85931C46.3008 4.14853 46.8803 3.5708 47.5925 3.5708H52.6735C53.3864 3.5708 53.9653 4.14853 53.9653 4.85931C53.9653 5.57008 53.3864 6.14842 52.6735 6.14842Z" fill="#293F94"/>
<path fill-rule="evenodd" clip-rule="evenodd" d="M38.9343 8.46141C38.5508 8.46141 38.2385 8.77306 38.2385 9.15578V17.7963C38.2385 18.179 38.5508 18.4906 38.9343 18.4906C39.3178 18.4906 39.6295 18.179 39.6295 17.7963V9.15578C39.6295 8.77306 39.3178 8.46141 38.9343 8.46141ZM38.9343 19.0854C38.2221 19.0854 37.6426 18.5071 37.6426 17.7963V9.15581C37.6426 8.44504 38.2221 7.8667 38.9343 7.8667C39.6465 7.8667 40.2254 8.44504 40.2254 9.15581V17.7963C40.2254 18.5071 39.6465 19.0854 38.9343 19.0854Z" fill="#293F94"/>
<path fill-rule="evenodd" clip-rule="evenodd" d="M66.4142 8.46141C66.0307 8.46141 65.719 8.77306 65.719 9.15578V15.2606C65.719 17.0417 67.1708 18.4906 68.955 18.4906C70.7398 18.4906 72.1916 17.0417 72.1916 15.2606V13.4757C72.1916 13.0936 71.8793 12.782 71.4958 12.782C71.1123 12.782 70.8007 13.0936 70.8007 13.4757V15.2606C70.8007 16.2763 69.9728 17.1025 68.955 17.1025C67.9372 17.1025 67.1099 16.2763 67.1099 15.2606V9.15578C67.1099 8.77306 66.7977 8.46141 66.4142 8.46141ZM68.955 19.0854C66.8421 19.0854 65.123 17.3698 65.123 15.2606V9.15581C65.123 8.44504 65.7019 7.8667 66.4142 7.8667C67.1264 7.8667 67.7059 8.44504 67.7059 9.15581V15.2606C67.7059 15.9483 68.2659 16.5078 68.955 16.5078C69.6441 16.5078 70.2047 15.9483 70.2047 15.2606V13.4757C70.2047 12.7656 70.7836 12.1872 71.4958 12.1872C72.208 12.1872 72.7875 12.7656 72.7875 13.4757V15.2606C72.7875 17.3698 71.0685 19.0854 68.955 19.0854Z" fill="#293F94"/>
<path fill-rule="evenodd" clip-rule="evenodd" d="M176.493 13.317C176.493 11.5972 177.894 10.1993 179.617 10.1993C180.129 10.1993 180.617 10.3184 181.066 10.5535C181.466 10.7631 181.822 11.0632 182.098 11.4222C182.519 11.9696 182.741 12.6245 182.741 13.317C182.741 15.0362 181.34 16.4347 179.617 16.4347C177.894 16.4347 176.493 15.0362 176.493 13.317ZM182.266 8.27112C181.455 7.84648 180.539 7.62109 179.617 7.62109C178.444 7.62109 177.354 7.97648 176.446 8.58459C176.301 8.03176 175.8 7.62109 175.201 7.62109C174.489 7.62109 173.91 8.19943 173.91 8.91021V25.9524C173.91 26.6632 174.489 27.2415 175.201 27.2415C175.913 27.2415 176.493 26.6632 176.493 25.9524V18.0774C177.391 18.6667 178.464 19.0123 179.617 19.0123C182.764 19.0123 185.324 16.4572 185.324 13.317C185.324 12.0528 184.918 10.8554 184.148 9.85426C183.646 9.20059 182.995 8.65263 182.266 8.27112Z" fill="#293F94"/>
<path fill-rule="evenodd" clip-rule="evenodd" d="M140.325 16.4345C138.602 16.4345 137.2 15.0361 137.2 13.3169C137.2 11.597 138.602 10.1992 140.325 10.1992C140.837 10.1992 141.324 10.3182 141.773 10.5533C142.173 10.7629 142.53 11.063 142.806 11.4221C143.226 11.9694 143.449 12.6243 143.449 13.3169C143.449 15.0361 142.047 16.4345 140.325 16.4345ZM150.737 9.43927H150.207C149.914 9.43927 149.676 9.20174 149.676 8.91014C149.676 8.61793 149.914 8.3804 150.207 8.3804C150.499 8.3804 150.737 8.61793 150.737 8.91014V9.43927ZM169.785 12.0277H164.103C164.596 10.9506 165.682 10.1992 166.944 10.1992C168.206 10.1992 169.293 10.9506 169.785 12.0277ZM166.944 7.62098C163.797 7.62098 161.237 10.1761 161.237 13.3169V15.38C161.237 15.9613 160.763 16.4346 160.18 16.4346C159.598 16.4346 159.124 15.9613 159.124 15.38V12.4883C159.124 10.8237 157.78 9.46839 156.118 9.44227V9.43923H153.32V8.9101C153.32 7.19634 151.923 5.80273 150.207 5.80273C148.489 5.80273 147.093 7.19634 147.093 8.9101C147.093 10.6232 148.489 12.0175 150.207 12.0175H150.737V14.0866C150.737 15.3812 149.682 16.4346 148.384 16.4346C147.087 16.4346 146.031 15.3812 146.031 14.0866V13.3169C146.031 12.0527 145.625 10.8547 144.855 9.85415C144.354 9.20048 143.703 8.65252 142.973 8.27101C142.162 7.84636 141.246 7.62098 140.325 7.62098C139.152 7.62098 138.061 7.97637 137.153 8.58448C137.008 8.03165 136.507 7.62098 135.909 7.62098C135.197 7.62098 134.617 8.19932 134.617 8.9101V25.9523C134.617 26.6631 135.197 27.2414 135.909 27.2414C136.621 27.2414 137.2 26.6631 137.2 25.9523V18.0773C138.099 18.6665 139.172 19.0122 140.325 19.0122C141.989 19.0122 143.485 18.2929 144.529 17.1545C145.434 18.2844 146.825 19.0122 148.384 19.0122C151.106 19.0122 153.32 16.8021 153.32 14.0866V12.0175H156.069C156.329 12.0175 156.541 12.2283 156.541 12.4883V15.5203H156.548C156.622 17.4576 158.221 19.0122 160.18 19.0122C161.383 19.0122 162.448 18.4242 163.111 17.5244C164.126 18.4454 165.468 19.0122 166.944 19.0122C167.656 19.0122 168.235 18.4345 168.235 17.7231C168.235 17.0129 167.656 16.4346 166.944 16.4346C165.682 16.4346 164.596 15.6825 164.103 14.6054H171.359C172.072 14.6054 172.651 14.0277 172.651 13.3169C172.651 10.1761 170.091 7.62098 166.944 7.62098Z" fill="#293F94"/>
<path fill-rule="evenodd" clip-rule="evenodd" d="M98.9174 12.1013C99.4105 11.0242 100.497 10.2721 101.759 10.2721C103.02 10.2721 104.107 11.0242 104.6 12.1013H98.9174ZM80.3543 17.7966V11.7173C80.3543 10.5594 81.2984 9.61717 82.4587 9.61717C83.6195 9.61717 84.5637 10.5594 84.5637 11.7173V17.7966C84.5637 18.5079 85.1426 19.0857 85.8548 19.0857C86.567 19.0857 87.1465 18.5079 87.1465 17.7966V11.7173C87.1465 10.5594 88.09 9.61717 89.2509 9.61717C90.4111 9.61717 91.3552 10.5594 91.3552 11.7173V15.7596H91.3705C91.5275 17.6192 93.0919 19.0857 94.9948 19.0857C96.1977 19.0857 97.2629 18.4976 97.9258 17.5979C98.9406 18.5189 100.283 19.0857 101.759 19.0857C102.471 19.0857 103.05 18.5079 103.05 17.7966C103.05 17.0864 102.471 16.508 101.759 16.508C100.497 16.508 99.4105 15.756 98.9174 14.6789H106.175C106.887 14.6789 107.466 14.1011 107.466 13.3904C107.466 10.2496 104.906 7.69444 101.759 7.69444C98.6119 7.69444 96.0516 10.2496 96.0516 13.3904V15.4534C96.0516 16.0348 95.578 16.508 94.9948 16.508C94.4123 16.508 93.9387 16.0348 93.9387 15.4534V11.7173C93.9387 9.13786 91.8355 7.03955 89.2509 7.03955C87.9141 7.03955 86.7094 7.60392 85.8548 8.5018C85.0001 7.60392 83.7954 7.03955 82.4587 7.03955C81.6217 7.03955 80.8364 7.2625 80.1553 7.64827C79.9264 7.28437 79.524 7.03955 79.0632 7.03955C78.351 7.03955 77.7715 7.61789 77.7715 8.32806V17.7966C77.7715 18.5079 78.351 19.0857 79.0632 19.0857C79.7748 19.0857 80.3543 18.5079 80.3543 17.7966Z" fill="#293F94"/>
<path fill-rule="evenodd" clip-rule="evenodd" d="M117.656 13.3905C117.656 15.1097 116.254 16.5082 114.532 16.5082C112.809 16.5082 111.408 15.1097 111.408 13.3905C111.408 11.6712 112.809 10.2722 114.532 10.2722C115.044 10.2722 115.531 10.3918 115.98 10.6269C116.38 10.8365 116.737 11.1366 117.013 11.4957C117.433 12.043 117.656 12.6979 117.656 13.3905ZM128.34 12.1014C127.628 12.1014 127.048 12.6797 127.048 13.3905V15.4536C127.048 16.035 126.574 16.5082 125.992 16.5082C125.409 16.5082 124.935 16.035 124.935 15.4536V14.0484H124.94V1.28912C124.94 0.578948 124.36 0 123.649 0C122.936 0 122.357 0.578948 122.357 1.28912V13.3905H122.352V15.4536C122.352 16.035 121.878 16.5082 121.295 16.5082C120.713 16.5082 120.239 16.035 120.239 15.4536V8.98371C120.239 8.27293 119.66 7.6946 118.947 7.6946C118.35 7.6946 117.85 8.10466 117.703 8.65627C117.534 8.54327 117.36 8.43818 117.181 8.34462C116.369 7.91937 115.453 7.6946 114.532 7.6946C111.385 7.6946 108.824 10.2497 108.824 13.3905C108.824 16.5307 111.385 19.0858 114.532 19.0858C116.008 19.0858 117.35 18.519 118.364 17.5981C119.028 18.4978 120.093 19.0858 121.295 19.0858C122.19 19.0858 123.009 18.7608 123.644 18.2244C124.278 18.7608 125.097 19.0858 125.992 19.0858C127.999 19.0858 129.631 17.4565 129.631 15.4536V13.3905C129.631 12.6797 129.052 12.1014 128.34 12.1014Z" fill="#293F94"/>
</svg>
