<svg width="53" height="10" viewBox="0 0 53 10" fill="none" xmlns="http://www.w3.org/2000/svg">
<path fill-rule="evenodd" clip-rule="evenodd" d="M48.8102 1.06263C50.7212 1.06263 51.7723 1.91306 51.7723 3.51943C51.8678 4.74783 51.0079 5.78725 49.8613 5.97623L52.4411 9.47245H50.4346L48.2369 6.07072H48.0458V9.47245H46.4215V1.06263H48.8102ZM48.0469 4.93662H48.5247C49.5757 4.93662 50.0535 4.46416 50.0535 3.61373C50.0535 2.85779 49.5757 2.38533 48.5247 2.38533H48.0469V4.93662ZM40.7842 9.47303H45.3706V8.05565H42.4086V5.78783H45.275V4.37045H42.4086V2.4806H45.3706V1.06322H40.7842V9.47303ZM36.0097 6.73276L33.8121 1.06322H32.0922L35.6275 9.66202H36.4875L40.0228 1.06322H38.3029L36.0097 6.73276ZM16.6084 5.31443C16.6084 7.67674 18.5194 9.66108 20.9081 9.66108C21.6725 9.66108 22.3413 9.47209 23.0102 9.18861V7.29877C22.5324 7.86572 21.8636 8.24369 21.0992 8.24369C19.5704 8.24369 18.3283 7.10978 18.3283 5.59791V5.40892C18.2327 3.89704 19.4749 2.57415 21.0037 2.47966C21.7681 2.47966 22.5324 2.85763 23.0102 3.42458V1.53474C22.4369 1.15677 21.6725 1.06227 21.0037 1.06227C18.5194 0.873289 16.6084 2.85763 16.6084 5.31443ZM13.6495 4.27586C12.694 3.89789 12.4073 3.7089 12.4073 3.23644C12.5029 2.66949 12.9806 2.19703 13.5539 2.29152C14.0317 2.29152 14.5094 2.575 14.8916 2.95296L15.7515 1.81906C15.0827 1.2521 14.2227 0.874133 13.3628 0.874133C12.0251 0.77964 10.8785 1.81906 10.783 3.14195V3.23644C10.783 4.37035 11.2607 5.0318 12.7895 5.50426C13.1717 5.59875 13.5539 5.78773 13.9361 5.97672C14.2227 6.1657 14.4138 6.44918 14.4138 6.82715C14.4138 7.4886 13.8406 8.05555 13.2673 8.05555H13.1717C12.4073 8.05555 11.7385 7.58309 11.4518 6.92164L10.4008 7.96106C10.9741 9.00048 12.1207 9.56743 13.2673 9.56743C14.796 9.66192 16.0382 8.52801 16.1337 7.01614V6.73266C16.0382 5.59875 15.5604 5.0318 13.6495 4.27586ZM8.10892 9.47303H9.73326V1.06322H8.10892V9.47303ZM0.557617 1.06368H2.94635H3.42409C5.71727 1.15818 7.5327 3.04802 7.43715 5.31584C7.43715 6.54424 6.86386 7.67815 5.90837 8.52858C5.04843 9.19003 3.99739 9.568 2.94635 9.4735H0.557617V1.06368ZM2.6608 8.05623C3.42519 8.15073 4.28513 7.86725 4.85843 7.39479C5.43172 6.82783 5.71837 6.0719 5.71837 5.22146C5.71837 4.46553 5.43172 3.70959 4.85843 3.14263C4.28513 2.67017 3.42519 2.38669 2.6608 2.48119H2.18305V8.05623H2.6608Z" fill="black"/>
<path fill-rule="evenodd" clip-rule="evenodd" d="M27.8904 0.868164C25.5016 0.868164 23.4951 2.75801 23.4951 5.21481C23.4951 7.57712 25.4061 9.56146 27.8904 9.65595C30.3747 9.75045 32.2856 7.76611 32.3812 5.3093C32.2856 2.8525 30.3747 0.868164 27.8904 0.868164V0.868164Z" fill="#FD6020"/>
</svg>
