<svg width="34" height="11" viewBox="0 0 34 11" fill="none" xmlns="http://www.w3.org/2000/svg">
<path fill-rule="evenodd" clip-rule="evenodd" d="M8.28677 10.6485H5.41822L3.26716 2.44208C3.16506 2.06459 2.94827 1.73086 2.62939 1.57357C1.83358 1.17829 0.95665 0.863712 0 0.705054V0.389107H4.62101C5.25878 0.389107 5.73711 0.863712 5.81683 1.41491L6.93292 7.33449L9.80007 0.389107H12.5889L8.28677 10.6485ZM14.1818 10.6476H11.4727L13.7034 0.388184H16.4126L14.1818 10.6476ZM19.9166 3.22966C19.9963 2.67709 20.4746 2.36115 21.0327 2.36115C21.9096 2.28182 22.8648 2.44047 23.6621 2.83438L24.1404 0.625484C23.3432 0.309537 22.4662 0.150879 21.6704 0.150879C19.041 0.150879 17.1277 1.57196 17.1277 3.54424C17.1277 5.04465 18.483 5.83247 19.4396 6.30707C20.4746 6.78031 20.8732 7.09626 20.7935 7.5695C20.7935 8.27935 19.9963 8.5953 19.2005 8.5953C18.2438 8.5953 17.2872 8.35868 16.4116 7.9634L15.9333 10.1737C16.89 10.5676 17.9249 10.7262 18.8816 10.7262C21.8299 10.8042 23.6621 9.38448 23.6621 7.25355C23.6621 4.57004 19.9166 4.41275 19.9166 3.22966ZM33.146 10.6475L30.9949 0.388091H28.6844C28.2061 0.388091 27.7277 0.704039 27.5683 1.17728L23.5851 10.6475H26.3739L26.9305 9.14846H30.3571L30.676 10.6475H33.146ZM29.0836 3.15031L29.8794 7.01691H27.6486L29.0836 3.15031Z" fill="#172B85"/>
</svg>
