<svg width="19" height="14" viewBox="0 0 19 14" fill="none" xmlns="http://www.w3.org/2000/svg">
<path d="M13.7888 6.98305C14.2744 6.9936 14.7627 6.96161 15.2463 6.99967C15.7361 7.09104 15.8541 7.83249 15.419 8.07532C15.1221 8.23529 14.7694 8.1349 14.4476 8.16312H13.7888V6.98305ZM15.5271 5.64737C15.635 6.02815 15.2679 6.37004 14.9012 6.3176H13.7888C13.7966 5.95851 13.7736 5.56876 13.8001 5.22858C14.2457 5.24112 14.6954 5.20298 15.1385 5.24852C15.3288 5.29635 15.4881 5.45283 15.5271 5.64737ZM18.204 0.000514794C18.2247 0.727709 18.207 1.49334 18.213 2.23528C18.2116 5.25176 18.2159 8.26816 18.2106 11.2848C18.1911 12.4153 17.1892 13.3976 16.0665 13.4202C14.9428 13.4248 13.8188 13.4209 12.6949 13.4221V8.86185C13.9195 8.85553 15.1447 8.87469 16.3687 8.85229C16.9366 8.81664 17.5585 8.44197 17.585 7.81707C17.6518 7.18948 17.0601 6.75539 16.4984 6.68683C16.2824 6.68122 16.2887 6.62388 16.4984 6.59886C17.0342 6.48306 17.4549 5.92851 17.2973 5.37313C17.1629 4.789 16.5173 4.56292 15.9803 4.56404C14.8853 4.5566 13.7902 4.563 12.6952 4.56084C12.7022 3.70949 12.6804 2.85723 12.7069 2.0065C12.7937 0.896408 13.8208 -0.0190562 14.9277 0.000805495C16.0199 0.000639289 17.112 0.000639403 18.204 0.000597851V0.000514794Z" fill="url(#paint0_linear)"/>
<path d="M0.321117 2.12168C0.349082 0.992973 1.35525 0.0187135 2.47648 0.0022175C3.59609 -0.00123128 4.71586 0.00171907 5.83547 0.000721831C5.83239 3.77714 5.84154 7.55397 5.83086 11.3302C5.78773 12.4452 4.79252 13.4009 3.68351 13.4206C2.56179 13.4247 1.43994 13.4212 0.318167 13.4223V8.70827C1.40777 8.96568 2.5504 9.07526 3.66199 8.90452C4.32644 8.79761 5.05343 8.4713 5.27839 7.78196C5.44393 7.1923 5.35073 6.57173 5.37537 5.96653V4.56105H3.45165C3.44301 5.4906 3.46936 6.42177 3.43774 7.3502C3.38588 7.92087 2.82074 8.28345 2.28252 8.26409C1.61503 8.27115 0.292322 7.78034 0.292322 7.78034C0.288998 6.03875 0.311685 3.85766 0.321117 2.12185V2.12168Z" fill="url(#paint1_linear)"/>
<path d="M6.54772 5.12768C6.44646 5.14916 6.52736 4.78276 6.50147 4.64377C6.50837 3.76495 6.48706 2.88518 6.51323 2.00699C6.59974 0.892198 7.63474 -0.0255513 8.74612 0.000543062H12.019C12.016 3.77696 12.0251 7.55379 12.0144 11.33C11.9712 12.445 10.976 13.4006 9.86692 13.4204C8.74516 13.4247 7.62328 13.4211 6.50143 13.4222V8.2573C7.2676 8.88593 8.30891 8.98379 9.26343 8.98549C9.98302 8.98524 10.6984 8.8743 11.3972 8.70834V7.76213C10.6097 8.15463 9.68393 8.40394 8.81094 8.17844C8.20196 8.02686 7.7599 7.43832 7.76974 6.80985C7.69919 6.15629 8.08229 5.46628 8.72455 5.27199C9.52196 5.02234 10.391 5.21327 11.1385 5.53783C11.2987 5.62168 11.4612 5.72569 11.3972 5.45801V4.71428C10.1471 4.41685 8.81667 4.30741 7.56074 4.63097C7.19721 4.73352 6.84303 4.88905 6.54772 5.12776V5.12768Z" fill="url(#paint2_linear)"/>
<defs>
<linearGradient id="paint0_linear" x1="12.6572" y1="6.42436" x2="18.1782" y2="6.42436" gradientUnits="userSpaceOnUse">
<stop stop-color="#58B03A"/>
<stop offset="1" stop-color="#55B330"/>
</linearGradient>
<linearGradient id="paint1_linear" x1="0.20078" y1="6.84004" x2="5.74501" y2="6.84004" gradientUnits="userSpaceOnUse">
<stop stop-color="#0F6EB6"/>
<stop offset="1" stop-color="#006DBA"/>
</linearGradient>
<linearGradient id="paint2_linear" x1="6.49334" y1="6.5544" x2="12.018" y2="6.5544" gradientUnits="userSpaceOnUse">
<stop stop-color="#DE0D3D"/>
<stop offset="1" stop-color="#E30138"/>
</linearGradient>
</defs>
</svg>
