<svg width="23" height="14" viewBox="0 0 23 14" fill="none" xmlns="http://www.w3.org/2000/svg">
<path fill-rule="evenodd" clip-rule="evenodd" d="M11.2555 12.4134C10.1092 13.4024 8.62237 13.9994 6.9977 13.9994C3.37191 13.9994 0.432617 11.026 0.432617 7.35809C0.432617 3.69021 3.37191 0.716797 6.9977 0.716797C8.62237 0.716797 10.1092 1.3138 11.2555 2.30278C12.4018 1.3138 13.8887 0.716797 15.5133 0.716797C19.1391 0.716797 22.0784 3.69021 22.0784 7.35809C22.0784 11.026 19.1391 13.9994 15.5133 13.9994C13.8887 13.9994 12.4018 13.4024 11.2555 12.4134Z" fill="#ED0006"/>
<path fill-rule="evenodd" clip-rule="evenodd" d="M11.2539 12.4121C12.6646 11.194 13.5591 9.38194 13.5591 7.35858C13.5591 5.33522 12.6646 3.5232 11.2539 2.30507C12.4005 1.31501 13.8882 0.717285 15.5138 0.717285C19.1396 0.717285 22.0789 3.69069 22.0789 7.35858C22.0789 11.0265 19.1396 13.9999 15.5138 13.9999C13.8882 13.9999 12.4005 13.4021 11.2539 12.4121Z" fill="#F9A000"/>
<path fill-rule="evenodd" clip-rule="evenodd" d="M11.2515 12.4134C12.6635 11.1952 13.5589 9.38236 13.5589 7.35794C13.5589 5.33364 12.6636 3.52087 11.2517 2.30273C9.83973 3.52088 8.94434 5.33374 8.94434 7.35816C8.94434 9.38246 9.83962 11.1952 11.2515 12.4134Z" fill="#FF5E00"/>
</svg>
