<svg width="40" height="10" viewBox="0 0 40 10" fill="none" xmlns="http://www.w3.org/2000/svg">
<path fill-rule="evenodd" clip-rule="evenodd" d="M4.82088 0.151367L0.390625 9.95538H5.69426L6.35176 8.39221H7.85465L8.51215 9.95538H14.35V8.76232L14.8702 9.95538H17.8899L18.4101 8.73711V9.95538H30.5512L32.0275 8.43281L33.4098 9.95538L39.6457 9.96799L35.2015 5.08074L39.6457 0.151367H33.5065L32.0695 1.6458L30.7306 0.151367H17.5227L16.3886 2.68187L15.2278 0.151367H9.93524V1.30383L9.34647 0.151367H4.82088ZM5.84608 1.54345H8.43132L11.3699 8.1916V1.54345H14.2019L16.4717 6.31014L18.5635 1.54345H21.3814V8.57847H19.6667L19.6527 3.06587L17.153 8.57847H15.6192L13.1054 3.06587V8.57847H9.57809L8.90937 7.00131H5.29652L4.62918 8.57709H2.73927L5.84608 1.54345ZM29.9251 1.54346H22.9531V8.57433H29.8172L32.0295 6.24419L34.1619 8.57433H36.3911L33.1511 5.07927L36.3911 1.54346H34.2586L32.0575 3.84685L29.9251 1.54346ZM7.10435 2.73389L5.91406 5.54347H8.29326L7.10435 2.73389ZM24.6758 4.28401V2.99977V2.99854H29.0261L30.9243 5.05237L28.942 7.11742H24.6758V5.7154H28.4793V4.28401H24.6758Z" fill="#1F72CD"/>
</svg>
