<svg width="18" height="14" viewBox="0 0 18 14" fill="none" xmlns="http://www.w3.org/2000/svg">
<path d="M10.7738 13.8338C14.5205 13.8518 17.9404 10.75 17.9404 6.97675C17.9404 2.85076 14.5205 -0.0015395 10.7738 6.23393e-07H7.54917C3.75777 -0.0015395 0.636719 2.85153 0.636719 6.97675C0.636719 10.7508 3.75777 13.8518 7.54917 13.8338H10.7738Z" fill="#0079BE"/>
<path d="M7.55845 0.571777C4.09357 0.572932 1.28631 3.40675 1.28516 6.90437C1.28631 10.4016 4.09357 13.2354 7.55845 13.2366C11.0237 13.2354 13.8321 10.4016 13.8325 6.90437C13.8321 3.40675 11.0241 0.572932 7.55845 0.571777ZM3.58225 6.90437C3.58152 6.09569 3.82476 5.3056 4.28019 4.63736C4.73563 3.96912 5.38205 3.45382 6.135 3.1588V10.6496C5.38199 10.3547 4.73549 9.83954 4.28003 9.17133C3.82458 8.50313 3.58138 7.71303 3.58225 6.90437ZM8.98153 10.6511V3.15841C9.73503 3.45301 10.382 3.96827 10.8378 4.63674C11.2935 5.3052 11.5368 6.09571 11.5358 6.90476C11.5367 7.71377 11.2933 8.5042 10.8376 9.17264C10.3818 9.84107 9.73494 10.3564 8.98153 10.6511Z" fill="white"/>
<path d="M10.7738 13.8338C14.5205 13.8518 17.9404 10.75 17.9404 6.97675C17.9404 2.85076 14.5205 -0.0015395 10.7738 6.23393e-07H7.54917C3.75777 -0.0015395 0.636719 2.85153 0.636719 6.97675C0.636719 10.7508 3.75777 13.8518 7.54917 13.8338H10.7738Z" fill="#0079BE"/>
<path d="M7.55845 0.571777C4.09357 0.572932 1.28631 3.40675 1.28516 6.90437C1.28631 10.4016 4.09357 13.2354 7.55845 13.2366C11.0237 13.2354 13.8321 10.4016 13.8325 6.90437C13.8321 3.40675 11.0241 0.572932 7.55845 0.571777ZM3.58225 6.90437C3.58152 6.09569 3.82476 5.3056 4.28019 4.63736C4.73563 3.96912 5.38205 3.45382 6.135 3.1588V10.6496C5.38199 10.3547 4.73549 9.83954 4.28003 9.17133C3.82458 8.50313 3.58138 7.71303 3.58225 6.90437ZM8.98153 10.6511V3.15841C9.73503 3.45301 10.382 3.96827 10.8378 4.63674C11.2935 5.3052 11.5368 6.09571 11.5358 6.90476C11.5367 7.71377 11.2933 8.5042 10.8376 9.17264C10.3818 9.84107 9.73494 10.3564 8.98153 10.6511Z" fill="white"/>
</svg>
