<svg width="24" height="24" viewBox="0 0 24 24" fill="none" xmlns="http://www.w3.org/2000/svg">
    <path d="M17.1299 1.2002H7.4699C6.32709 1.2002 5.3999 2.12738 5.3999 3.2702V21.2102C5.3999 22.353 6.32709 23.2802 7.4699 23.2802H17.1299C18.2727 23.2802 19.1999 22.353 19.1999 21.2102V3.2702C19.1999 2.12738 18.2727 1.2002 17.1299 1.2002ZM12.2999 21.9002C11.5366 21.9002 10.9199 21.2835 10.9199 20.5202C10.9199 19.7569 11.5366 19.1402 12.2999 19.1402C13.0632 19.1402 13.6799 19.7569 13.6799 20.5202C13.6799 21.2835 13.0632 21.9002 12.2999 21.9002ZM17.1299 17.2427C17.1299 17.5273 16.897 17.7602 16.6124 17.7602H7.9874C7.70278 17.7602 7.4699 17.5273 7.4699 17.2427V3.7877C7.4699 3.50307 7.70278 3.2702 7.9874 3.2702H16.6124C16.897 3.2702 17.1299 3.50307 17.1299 3.7877V17.2427Z" fill="#293F94"/>
</svg>
