<svg width="32" height="33" viewBox="0 0 32 33" fill="none" xmlns="http://www.w3.org/2000/svg">
<path fill-rule="evenodd" clip-rule="evenodd" d="M19.5046 16.7327L24.3769 11.8602C25.2077 11.0294 25.2077 9.68641 24.3769 8.85556C23.5461 8.02471 22.2031 8.02471 21.3723 8.85556L16.5 13.728L11.6277 8.85556C10.7969 8.02471 9.45394 8.02471 8.62312 8.85556C7.79229 9.68641 7.79229 11.0294 8.62312 11.8602L13.4954 16.7327L8.62312 21.6052C7.79229 22.436 7.79229 23.779 8.62312 24.6098C9.03747 25.0242 9.58143 25.2324 10.1254 25.2324C10.6694 25.2324 11.2133 25.0242 11.6277 24.6098L16.5 19.7373L21.3723 24.6098C21.7867 25.0242 22.3306 25.2324 22.8746 25.2324C23.4186 25.2324 23.9625 25.0242 24.3769 24.6098C25.2077 23.779 25.2077 22.436 24.3769 21.6052L19.5046 16.7327Z" fill="#1A1A1A"/>
<mask id="mask0" mask-type="alpha" maskUnits="userSpaceOnUse" x="8" y="8" width="17" height="18">
<path fill-rule="evenodd" clip-rule="evenodd" d="M19.5046 16.7327L24.3769 11.8602C25.2077 11.0294 25.2077 9.68641 24.3769 8.85556C23.5461 8.02471 22.2031 8.02471 21.3723 8.85556L16.5 13.728L11.6277 8.85556C10.7969 8.02471 9.45394 8.02471 8.62312 8.85556C7.79229 9.68641 7.79229 11.0294 8.62312 11.8602L13.4954 16.7327L8.62312 21.6052C7.79229 22.436 7.79229 23.779 8.62312 24.6098C9.03747 25.0242 9.58143 25.2324 10.1254 25.2324C10.6694 25.2324 11.2133 25.0242 11.6277 24.6098L16.5 19.7373L21.3723 24.6098C21.7867 25.0242 22.3306 25.2324 22.8746 25.2324C23.4186 25.2324 23.9625 25.0242 24.3769 24.6098C25.2077 23.779 25.2077 22.436 24.3769 21.6052L19.5046 16.7327Z" fill="white"/>
</mask>
<g mask="url(#mask0)">
<rect y="0.232422" width="32" height="32" fill="white"/>
</g>
</svg>
