<svg width="24" height="24" viewBox="0 0 24 24" fill="none" xmlns="http://www.w3.org/2000/svg">
    <path fill-rule="evenodd" clip-rule="evenodd" d="M20.4879 3.6001H3.5125C2.23545 3.6001 1.2002 4.63535 1.2002 5.9124C1.2002 6.49839 1.49612 7.04475 1.98691 7.36491L9.04986 11.9723C9.22831 12.0887 9.41194 12.1935 9.59971 12.2868L10.9988 13.2248C11.6053 13.6314 12.3972 13.6314 13.0036 13.2248L14.4085 12.2829C14.5936 12.1906 14.7746 12.0871 14.9505 11.9723L22.0135 7.36491C22.5043 7.04475 22.8002 6.49839 22.8002 5.9124C22.8002 4.63535 21.7649 3.6001 20.4879 3.6001ZM1.22676 18.0001V11.812C1.22676 10.8521 2.29775 10.2807 3.095 10.8152L9.66237 15.2182C11.0773 16.1669 12.9251 16.1669 14.34 15.2182L20.914 10.8108C21.7113 10.2763 22.7823 10.8477 22.7823 11.8075V18.0001C22.7823 19.3256 21.7077 20.4001 20.3823 20.4001H3.62676C2.30128 20.4001 1.22676 19.3256 1.22676 18.0001Z" fill="white"/>
</svg>
