<svg width="24" height="24" viewBox="0 0 24 24" fill="none" xmlns="http://www.w3.org/2000/svg">
<g opacity="0.7">
<path fill-rule="evenodd" clip-rule="evenodd" d="M12.6003 5.00847C12.3685 5.31941 12.173 5.58182 11.9985 5.71582C11.8254 5.58395 11.6634 5.3389 11.4711 5.04795C10.9192 4.21296 10.1175 3 8.08617 3C6.44555 3 5.64949 4.25781 5.88248 4.89569C6.17372 5.67937 6.98919 6.09854 8.32889 6.11677C10.7462 6.13499 13.1635 6.13499 15.5807 6.11677C16.9496 6.09854 17.7942 5.67937 18.1145 4.93214C18.3766 4.27604 17.4775 3 15.521 3C14.0972 3 13.2196 4.17754 12.6003 5.00847ZM10.8635 11.454V8.10472C10.0734 8.10472 9.30348 8.09802 8.54682 8.09144H8.54681H8.5468C7.07197 8.07861 5.64759 8.06622 4.2232 8.10472C3.1165 8.13384 3 8.94931 3 9.56092C3 11.4766 3.43752 11.472 4.88988 11.4569C5.02731 11.4555 5.17382 11.454 5.32991 11.454H7.25209H10.8635ZM10.8625 13.9545V21.4431C10.3656 21.4431 9.87049 21.4468 9.37722 21.4504H9.37709H9.37705H9.37701C7.90455 21.4613 6.44842 21.4721 5.00863 21.3848C4.16404 21.3848 4.01842 20.8315 4.01842 20.249C3.99947 18.7333 4.00518 17.5488 4.01148 16.2405C4.01486 15.5377 4.01842 14.7992 4.01842 13.9545H10.8625ZM13.3645 21.5013V13.9545H20.1794V20.2781C20.1794 21.1227 19.5096 21.5013 18.7233 21.5013H13.3645ZM13.3645 11.4539V8.10462C13.9497 8.10462 14.5312 8.10278 15.11 8.10095C16.8356 8.0955 18.5366 8.09013 20.2377 8.13374C21.0609 8.18863 21.0051 9.17428 20.9959 9.33675C20.9953 9.34671 20.9949 9.35358 20.9949 9.35695C20.9949 11.5094 20.7767 11.5039 19.2119 11.4643C19.0617 11.4605 18.8992 11.4564 18.7233 11.4539H13.3645Z" fill="white"/>
</g>
</svg>
