<svg width="24" height="24" viewBox="0 0 24 24" fill="none" xmlns="http://www.w3.org/2000/svg">
<path fill-rule="evenodd" clip-rule="evenodd" d="M3.0038 5.13867C3.04367 4.74705 3.44242 4.43376 3.84117 4.51208L6.83176 4.94286C7.15075 4.98202 7.39 5.21699 7.46975 5.53028L7.94824 7.56668H19.0457C19.2052 7.56668 19.3249 7.645 19.4046 7.76249C19.4844 7.87997 19.5242 8.07578 19.4844 8.19326L18.2881 12.96C18.2084 13.1558 18.009 13.3125 17.8096 13.3125L9.66285 14.3698L9.78247 14.8789H17.8894C18.2881 14.8789 18.647 15.2314 18.647 15.623C18.647 16.0146 18.328 16.3671 17.8894 16.3671H9.14448C8.78561 16.3671 8.46661 16.1321 8.38686 15.7797L6.07414 6.31351L3.60192 5.96106C3.24305 5.9219 2.96392 5.53028 3.0038 5.13867ZM15.8558 19.5C15.1511 19.5 14.5798 18.9389 14.5798 18.2468C14.5798 17.5547 15.1511 16.9937 15.8558 16.9937C16.5605 16.9937 17.1318 17.5547 17.1318 18.2468C17.1318 18.9389 16.5605 19.5 15.8558 19.5ZM9.50336 18.2468C9.50336 18.9389 10.0746 19.5 10.7793 19.5C11.4841 19.5 12.0553 18.9389 12.0553 18.2468C12.0553 17.5547 11.4841 16.9937 10.7793 16.9937C10.0746 16.9937 9.50336 17.5547 9.50336 18.2468Z" fill="white"/>
<mask id="mask0" mask-type="alpha" maskUnits="userSpaceOnUse" x="3" y="4" width="17" height="16">
<path fill-rule="evenodd" clip-rule="evenodd" d="M3.0038 5.13867C3.04367 4.74705 3.44242 4.43376 3.84117 4.51208L6.83176 4.94286C7.15075 4.98202 7.39 5.21699 7.46975 5.53028L7.94824 7.56668H19.0457C19.2052 7.56668 19.3249 7.645 19.4046 7.76249C19.4844 7.87997 19.5242 8.07578 19.4844 8.19326L18.2881 12.96C18.2084 13.1558 18.009 13.3125 17.8096 13.3125L9.66285 14.3698L9.78247 14.8789H17.8894C18.2881 14.8789 18.647 15.2314 18.647 15.623C18.647 16.0146 18.328 16.3671 17.8894 16.3671H9.14448C8.78561 16.3671 8.46661 16.1321 8.38686 15.7797L6.07414 6.31351L3.60192 5.96106C3.24305 5.9219 2.96392 5.53028 3.0038 5.13867ZM15.8558 19.5C15.1511 19.5 14.5798 18.9389 14.5798 18.2468C14.5798 17.5547 15.1511 16.9937 15.8558 16.9937C16.5605 16.9937 17.1318 17.5547 17.1318 18.2468C17.1318 18.9389 16.5605 19.5 15.8558 19.5ZM9.50336 18.2468C9.50336 18.9389 10.0746 19.5 10.7793 19.5C11.4841 19.5 12.0553 18.9389 12.0553 18.2468C12.0553 17.5547 11.4841 16.9937 10.7793 16.9937C10.0746 16.9937 9.50336 17.5547 9.50336 18.2468Z" fill="white"/>
</mask>
<g mask="url(#mask0)">
<rect width="24" height="24" fill="white"/>
</g>
</svg>
