<svg width="40" height="27" viewBox="0 0 40 27" fill="none" xmlns="http://www.w3.org/2000/svg">
<path d="M3.18182 0C1.43482 0 0 1.46945 0 3.25862V23.7414C0 25.5305 1.43482 27 3.18182 27H36.8182C38.5652 27 40 25.5305 40 23.7414V3.25862C40 1.46945 38.5652 0 36.8182 0H3.18182ZM3.18182 1.86207H36.8182C37.5894 1.86207 38.1818 2.46882 38.1818 3.25862V4.65517H1.81818V3.25862C1.81818 2.46882 2.41064 1.86207 3.18182 1.86207ZM1.81818 6.51724H38.1818V9.31034H1.81818V6.51724ZM1.81818 11.1724H38.1818V23.7414C38.1818 24.5312 37.5894 25.1379 36.8182 25.1379H3.18182C2.41064 25.1379 1.81818 24.5312 1.81818 23.7414V11.1724ZM27.2727 14.882C25.2752 14.882 23.6364 16.5749 23.6364 18.6207C23.6364 20.6665 25.2752 22.3448 27.2727 22.3448C28.1287 22.3448 28.9205 22.0304 29.5455 21.5157C30.1686 22.0318 30.9593 22.3448 31.8182 22.3448C33.8157 22.3448 35.4545 20.6665 35.4545 18.6207C35.4545 16.5749 33.8157 14.8966 31.8182 14.8966C30.9651 14.8966 30.1809 15.2056 29.5596 15.7112C28.9333 15.1922 28.1327 14.882 27.2727 14.882ZM27.2727 16.7586C28.2876 16.7586 29.0909 17.5813 29.0909 18.6207C29.0909 19.6601 28.2876 20.4682 27.2727 20.4682C26.2578 20.4682 25.4545 19.6601 25.4545 18.6207C25.4545 17.5813 26.2578 16.7586 27.2727 16.7586ZM31.8182 16.7586C32.8331 16.7586 33.6364 17.5813 33.6364 18.6207C33.6364 19.6601 32.8331 20.4828 31.8182 20.4828C31.3654 20.4828 30.9566 20.3115 30.6392 20.0318C30.8172 19.594 30.9091 19.121 30.9091 18.6207C30.9091 18.125 30.814 17.6441 30.6392 17.2096C30.9566 16.9342 31.3654 16.7586 31.8182 16.7586Z" fill="#A4B6C0"/>
</svg>
