<svg width="64" height="37" viewBox="0 0 64 37" fill="none" xmlns="http://www.w3.org/2000/svg">
<path d="M62.1947 27.9834V9.44988C58.0809 9.44988 54.7448 6.11375 54.7448 2H9.41668C9.41668 6.11375 6.08055 9.44988 1.9668 9.44988V27.9834C6.08055 27.9834 9.41668 31.3195 9.41668 35.4333H54.74C54.7448 31.3195 58.0809 27.9834 62.1947 27.9834Z" fill="#F2B2C3" stroke="#3C3C3C" stroke-width="2.26667"/>
<rect x="11.9844" y="13.4727" width="26.4922" height="6.90266" fill="#F8E10A" stroke="#3C3C3C" stroke-width="2.26667"/>
<path d="M11.9844 23.9607H30.7771Z" fill="white"/>
<path d="M11.9844 23.9607H30.7771" stroke="#3C3C3C" stroke-width="2.26667"/>
<path d="M58.1189 11.8164V24.7625Z" fill="white"/>
<path d="M58.1189 11.8164V24.7625" stroke="#3C3C3C" stroke-width="2.26667"/>
<path d="M50.1599 2.00488V5.35541Z" fill="white"/>
<path d="M50.1599 2.00488V5.35541" stroke="#3C3C3C" stroke-width="2.26667"/>
<path d="M50.1599 7.98633V11.3369Z" fill="white"/>
<path d="M50.1599 7.98633V11.3369" stroke="#3C3C3C" stroke-width="2.26667"/>
<path d="M50.1599 13.9663V17.3168Z" fill="white"/>
<path d="M50.1599 13.9663V17.3168" stroke="#3C3C3C" stroke-width="2.26667"/>
<path d="M50.1599 19.9478V23.2983Z" fill="white"/>
<path d="M50.1599 19.9478V23.2983" stroke="#3C3C3C" stroke-width="2.26667"/>
<path d="M50.1599 25.9292V29.2797Z" fill="white"/>
<path d="M50.1599 25.9292V29.2797" stroke="#3C3C3C" stroke-width="2.26667"/>
<path d="M50.1599 32.0781V35.4335Z" fill="white"/>
<path d="M50.1599 32.0781V35.4335" stroke="#3C3C3C" stroke-width="2.26667"/>
</svg>
