<svg width="16" height="17" viewBox="0 0 16 17" fill="none" xmlns="http://www.w3.org/2000/svg">
<path fill-rule="evenodd" clip-rule="evenodd" d="M7.98674 7.6517C8.51939 7.02504 9.49071 5.70907 9.49071 4.17376C9.49071 2.63846 8.51939 1.29115 7.98674 0.664497C7.79874 0.445168 7.48541 0.445168 7.29742 0.664497C6.76476 1.29115 5.79344 2.60713 5.79344 4.14243C5.79344 5.67773 6.76476 7.02504 7.29742 7.62036C7.48541 7.83969 7.79874 7.83969 7.98674 7.6517ZM6.80842 11.2982C7.09702 11.3109 7.31667 11.1131 7.29855 10.83C7.28052 10.0059 7.05931 8.3905 5.99766 7.24142C4.94145 6.1232 3.33154 5.83438 2.49117 5.75984C2.20258 5.7471 1.98293 5.94491 2.00104 6.22806C2.01908 7.0521 2.24029 8.66753 3.30194 9.81661C4.36359 10.9657 5.99892 11.2182 6.80842 11.2982ZM7.95426 10.8613C8.00316 10.0427 8.19895 8.39097 9.25516 7.27275C10.3168 6.12367 11.9576 5.8403 12.7616 5.79118C13.0194 5.77299 13.2699 5.97624 13.2518 6.25939C13.2029 7.07799 13.0071 8.72972 11.9509 9.84794C10.8947 10.9662 9.2539 11.2495 8.4444 11.3295C8.18666 11.3477 7.93615 11.1445 7.95426 10.8613ZM6.80842 16.4994C7.09702 16.5122 7.31667 16.3144 7.29855 16.0312C7.28052 15.2072 7.05931 13.5917 5.99766 12.4427C4.94145 11.3244 3.33154 11.0356 2.49117 10.9611C2.20258 10.9483 1.98293 11.1461 2.00104 11.4293C2.01908 12.2533 2.24029 13.8688 3.30194 15.0178C4.36359 16.1669 5.99892 16.4194 6.80842 16.4994ZM9.2553 12.4113C10.3115 11.2931 11.9523 11.0097 12.7618 10.9298C13.0504 10.917 13.2646 11.1457 13.2519 11.398C13.203 12.2166 13.0072 13.8683 11.951 14.9865C10.8948 16.1047 9.25404 16.3881 8.44453 16.4681C8.1868 16.4863 7.93629 16.283 7.9544 15.9999C8.00329 15.1813 8.19909 13.5296 9.2553 12.4113Z" fill=""/>
<mask id="mask0" mask-type="alpha" maskUnits="userSpaceOnUse" x="2" y="0" width="12" height="17">
<path fill-rule="evenodd" clip-rule="evenodd" d="M7.98674 7.6517C8.51939 7.02504 9.49071 5.70907 9.49071 4.17376C9.49071 2.63846 8.51939 1.29115 7.98674 0.664497C7.79874 0.445168 7.48541 0.445168 7.29742 0.664497C6.76476 1.29115 5.79344 2.60713 5.79344 4.14243C5.79344 5.67773 6.76476 7.02504 7.29742 7.62036C7.48541 7.83969 7.79874 7.83969 7.98674 7.6517ZM6.80842 11.2982C7.09702 11.3109 7.31667 11.1131 7.29855 10.83C7.28052 10.0059 7.05931 8.3905 5.99766 7.24142C4.94145 6.1232 3.33154 5.83438 2.49117 5.75984C2.20258 5.7471 1.98293 5.94491 2.00104 6.22806C2.01908 7.0521 2.24029 8.66753 3.30194 9.81661C4.36359 10.9657 5.99892 11.2182 6.80842 11.2982ZM7.95426 10.8613C8.00316 10.0427 8.19895 8.39097 9.25516 7.27275C10.3168 6.12367 11.9576 5.8403 12.7616 5.79118C13.0194 5.77299 13.2699 5.97624 13.2518 6.25939C13.2029 7.07799 13.0071 8.72972 11.9509 9.84794C10.8947 10.9662 9.2539 11.2495 8.4444 11.3295C8.18666 11.3477 7.93615 11.1445 7.95426 10.8613ZM6.80842 16.4994C7.09702 16.5122 7.31667 16.3144 7.29855 16.0312C7.28052 15.2072 7.05931 13.5917 5.99766 12.4427C4.94145 11.3244 3.33154 11.0356 2.49117 10.9611C2.20258 10.9483 1.98293 11.1461 2.00104 11.4293C2.01908 12.2533 2.24029 13.8688 3.30194 15.0178C4.36359 16.1669 5.99892 16.4194 6.80842 16.4994ZM9.2553 12.4113C10.3115 11.2931 11.9523 11.0097 12.7618 10.9298C13.0504 10.917 13.2646 11.1457 13.2519 11.398C13.203 12.2166 13.0072 13.8683 11.951 14.9865C10.8948 16.1047 9.25404 16.3881 8.44453 16.4681C8.1868 16.4863 7.93629 16.283 7.9544 15.9999C8.00329 15.1813 8.19909 13.5296 9.2553 12.4113Z" fill="white"/>
</mask>
<g mask="url(#mask0)">
<rect y="0.5" width="16" height="16" fill="#A4B6C0"/>
</g>
</svg>
