<svg width="24" height="24" viewBox="0 0 24 24" fill="none" xmlns="http://www.w3.org/2000/svg">
<path fill-rule="evenodd" clip-rule="evenodd" d="M5.56066 7.18934C4.97487 6.60355 4.02513 6.60355 3.43934 7.18934C2.85355 7.77513 2.85355 8.72487 3.43934 9.31066L10.9393 16.8107C11.5251 17.3964 12.4749 17.3964 13.0607 16.8107L20.5607 9.31066C21.1464 8.72487 21.1464 7.77513 20.5607 7.18934C19.9749 6.60355 19.0251 6.60355 18.4393 7.18934L12 13.6287L5.56066 7.18934Z" fill="#1A1A1A"/>
<mask id="mask0" mask-type="alpha" maskUnits="userSpaceOnUse" x="3" y="6" width="18" height="12">
<path fill-rule="evenodd" clip-rule="evenodd" d="M5.56066 7.18934C4.97487 6.60355 4.02513 6.60355 3.43934 7.18934C2.85355 7.77513 2.85355 8.72487 3.43934 9.31066L10.9393 16.8107C11.5251 17.3964 12.4749 17.3964 13.0607 16.8107L20.5607 9.31066C21.1464 8.72487 21.1464 7.77513 20.5607 7.18934C19.9749 6.60355 19.0251 6.60355 18.4393 7.18934L12 13.6287L5.56066 7.18934Z" fill="white"/>
</mask>
<g mask="url(#mask0)">
<rect x="24" y="24" width="24" height="24" transform="rotate(-180 24 24)" fill="#A4B6C0"/>
</g>
</svg>
