<svg width="40" height="40" viewBox="0 0 40 40" fill="none" xmlns="http://www.w3.org/2000/svg">
<path fill-rule="evenodd" clip-rule="evenodd" d="M9.26777 11.9822C8.29146 11.0059 6.70854 11.0059 5.73223 11.9822C4.75592 12.9585 4.75592 14.5415 5.73223 15.5178L18.2322 28.0178C19.2085 28.9941 20.7915 28.9941 21.7678 28.0178L34.2678 15.5178C35.2441 14.5415 35.2441 12.9585 34.2678 11.9822C33.2915 11.0059 31.7085 11.0059 30.7322 11.9822L20 22.7145L9.26777 11.9822Z" fill="#1A1A1A"/>
<mask id="mask0" mask-type="alpha" maskUnits="userSpaceOnUse" x="5" y="11" width="30" height="18">
<path fill-rule="evenodd" clip-rule="evenodd" d="M9.26777 11.9822C8.29146 11.0059 6.70854 11.0059 5.73223 11.9822C4.75592 12.9585 4.75592 14.5415 5.73223 15.5178L18.2322 28.0178C19.2085 28.9941 20.7915 28.9941 21.7678 28.0178L34.2678 15.5178C35.2441 14.5415 35.2441 12.9585 34.2678 11.9822C33.2915 11.0059 31.7085 11.0059 30.7322 11.9822L20 22.7145L9.26777 11.9822Z" fill="white"/>
</mask>
<g mask="url(#mask0)">
<rect x="40" y="40" width="40" height="40" transform="rotate(-180 40 40)" fill="#A4B6C0"/>
</g>
</svg>
