<svg width="24" height="24" viewBox="0 0 24 24" fill="none" xmlns="http://www.w3.org/2000/svg">
<path d="M5.86068 21.75H18.0517C21.0787 21.75 23.0088 18.5179 21.5732 15.8529L15.3922 4.37904C13.8717 1.55658 9.81484 1.58017 8.32728 4.42012L2.31733 15.894C0.922293 18.5573 2.85411 21.75 5.86068 21.75Z" fill="#293F94"/>
<path d="M11.625 15.2765C11.3777 15.2765 11.1648 15.2011 10.9863 15.0503C10.8214 14.8994 10.7184 14.6795 10.6772 14.3904L9.7706 8.5412C9.75687 8.47835 9.75 8.39036 9.75 8.27724C9.75 7.81215 9.92857 7.44134 10.2857 7.1648C10.6429 6.88827 11.0893 6.75 11.625 6.75C12.1607 6.75 12.6071 6.88827 12.9643 7.1648C13.3214 7.44134 13.5 7.81844 13.5 8.29609C13.5 8.40922 13.4931 8.49721 13.4794 8.56006L12.5522 14.3904C12.5247 14.6795 12.4217 14.8994 12.2431 15.0503C12.0783 15.2011 11.8723 15.2765 11.625 15.2765ZM11.625 19.5C11.1168 19.5 10.6978 19.3492 10.3681 19.0475C10.0385 18.7332 9.87363 18.3436 9.87363 17.8785C9.87363 17.4134 10.0385 17.03 10.3681 16.7284C10.6978 16.4141 11.1168 16.257 11.625 16.257C12.1332 16.257 12.5522 16.4141 12.8819 16.7284C13.2115 17.03 13.3764 17.4134 13.3764 17.8785C13.3764 18.3436 13.2115 18.7332 12.8819 19.0475C12.5522 19.3492 12.1332 19.5 11.625 19.5Z" fill="white"/>
</svg>
