<svg width="24" height="24" viewBox="0 0 24 24" fill="none" xmlns="http://www.w3.org/2000/svg">
<path d="M12 1.875C6.40812 1.875 1.875 6.40812 1.875 12C1.875 17.5919 6.40812 22.125 12 22.125C17.5919 22.125 22.125 17.5919 22.125 12C22.125 6.40812 17.5919 1.875 12 1.875Z" fill="#34BC89"/>
<mask id="mask0" mask-type="alpha" maskUnits="userSpaceOnUse" x="1" y="1" width="22" height="22">
<path d="M12 1.875C6.40812 1.875 1.875 6.40812 1.875 12C1.875 17.5919 6.40812 22.125 12 22.125C17.5919 22.125 22.125 17.5919 22.125 12C22.125 6.40812 17.5919 1.875 12 1.875Z" fill="white"/>
</mask>
<g mask="url(#mask0)">
<rect y="-0.375" width="24" height="24.75" fill="#34BC89"/>
<path fill-rule="evenodd" clip-rule="evenodd" d="M8.92385 16.4257L6.37389 13.8759C5.87537 13.3774 5.87537 12.5716 6.37389 12.0731C6.87241 11.5746 7.67819 11.5746 8.17671 12.0731L9.62764 13.524L15.6644 7.76728C16.0545 7.18083 16.845 7.02274 17.4328 7.41413C18.018 7.80553 18.1761 8.59597 17.786 9.18243L10.886 16.2319C10.6744 16.5493 10.3302 16.7559 9.95148 16.7928C9.90813 16.7967 9.86733 16.7992 9.82526 16.7992C9.48867 16.7992 9.16355 16.6666 8.92385 16.4257Z" fill="white"/>
<mask id="mask1" mask-type="alpha" maskUnits="userSpaceOnUse" x="6" y="7" width="12" height="10">
<path fill-rule="evenodd" clip-rule="evenodd" d="M8.92385 16.4257L6.37389 13.8759C5.87537 13.3774 5.87537 12.5716 6.37389 12.0731C6.87241 11.5746 7.67819 11.5746 8.17671 12.0731L9.62764 13.524L15.6644 7.76728C16.0545 7.18083 16.845 7.02274 17.4328 7.41413C18.018 7.80553 18.1761 8.59597 17.786 9.18243L10.886 16.2319C10.6744 16.5493 10.3302 16.7559 9.95148 16.7928C9.90813 16.7967 9.86733 16.7992 9.82526 16.7992C9.48867 16.7992 9.16355 16.6666 8.92385 16.4257Z" fill="white"/>
</mask>
<g mask="url(#mask1)">
<rect x="2.25" y="2.25" width="19.5" height="19.5" fill="white"/>
</g>
</g>
</svg>
